<svg width="464" height="311" viewBox="0 0 464 311" fill="none" xmlns="http://www.w3.org/2000/svg">
<path d="M47.0148 89.0774L156 26.1547L264.985 89.0774V214.923L156 277.845L47.0148 214.923V89.0774Z" stroke="#EEEEF7" stroke-width="2"/>
<path d="M85.1199 111.077L156 70.1547L226.88 111.077V192.923L156 233.845L85.1199 192.923V111.077Z" stroke="#EEEEF7" stroke-width="2"/>
<path d="M98.4132 119.015L156.363 71.2916L238.08 103.394L243.931 201.403L156.346 253.468L92.0769 186.278L98.4132 119.015Z" stroke="#0088F0" stroke-width="4"/>
<path d="M72.5214 104.392L155.362 58.6373L201.24 126.966L231.442 196H156.274L103.79 181.338L72.5214 104.392Z" stroke="#EF2A82" stroke-width="4"/>
<path d="M131.885 138.077L156 124.155L180.115 138.077V165.923L156 179.845L131.885 165.923V138.077Z" stroke="#EEEEF7" stroke-width="2"/>
<path d="M396.528 85.2324H399.069C400.314 85.2324 401.341 85.0271 402.149 84.6163C402.971 84.1928 403.58 83.6217 403.978 82.9029C404.389 82.1713 404.594 81.3499 404.594 80.4386C404.594 79.3605 404.415 78.4556 404.055 77.7241C403.696 76.9925 403.157 76.4406 402.438 76.0684C401.719 75.6961 400.808 75.51 399.704 75.51C398.703 75.51 397.818 75.709 397.047 76.1069C396.29 76.4919 395.693 77.0438 395.257 77.7626C394.833 78.4813 394.622 79.3284 394.622 80.3038H391.06C391.06 78.8792 391.419 77.5829 392.138 76.4149C392.857 75.2469 393.864 74.3164 395.161 73.6233C396.47 72.9302 397.984 72.5837 399.704 72.5837C401.398 72.5837 402.881 72.8853 404.152 73.4886C405.422 74.079 406.41 74.9646 407.116 76.1454C407.822 77.3133 408.175 78.7701 408.175 80.5156C408.175 81.2215 408.008 81.9788 407.675 82.7874C407.354 83.5831 406.847 84.3276 406.154 85.0206C405.473 85.7137 404.588 86.2849 403.497 86.7341C402.406 87.1705 401.097 87.3887 399.569 87.3887H396.528V85.2324ZM396.528 88.1588V86.0218H399.569C401.354 86.0218 402.83 86.2335 403.997 86.6571C405.165 87.0806 406.083 87.6454 406.751 88.3513C407.431 89.0572 407.906 89.8337 408.175 90.6808C408.458 91.5151 408.599 92.3493 408.599 93.1836C408.599 94.4927 408.374 95.6543 407.925 96.6682C407.489 97.6822 406.866 98.5421 406.057 99.248C405.262 99.954 404.325 100.487 403.247 100.846C402.169 101.205 400.994 101.385 399.723 101.385C398.504 101.385 397.355 101.212 396.277 100.865C395.212 100.519 394.269 100.018 393.447 99.3636C392.626 98.6961 391.984 97.8811 391.522 96.9185C391.06 95.9431 390.829 94.8329 390.829 93.5879H394.391C394.391 94.5633 394.602 95.4169 395.026 96.1484C395.462 96.88 396.078 97.4512 396.874 97.8619C397.683 98.2598 398.633 98.4587 399.723 98.4587C400.814 98.4587 401.751 98.2726 402.534 97.9004C403.33 97.5153 403.94 96.9378 404.363 96.1677C404.8 95.3976 405.018 94.4286 405.018 93.2606C405.018 92.0926 404.774 91.1364 404.286 90.392C403.799 89.6348 403.105 89.0765 402.207 88.7171C401.321 88.3449 400.275 88.1588 399.069 88.1588H396.528ZM432.452 91.5664V94.4927H412.199V92.3943L424.751 72.9687H427.658L424.54 78.5904L416.242 91.5664H432.452ZM428.544 72.9687V101H424.982V72.9687H428.544ZM435.379 79.8418V78.3594C435.379 77.2941 435.61 76.3251 436.072 75.4523C436.534 74.5795 437.195 73.88 438.055 73.3538C438.915 72.8276 439.935 72.5645 441.116 72.5645C442.322 72.5645 443.349 72.8276 444.196 73.3538C445.056 73.88 445.717 74.5795 446.179 75.4523C446.641 76.3251 446.872 77.2941 446.872 78.3594V79.8418C446.872 80.8814 446.641 81.8376 446.179 82.7104C445.73 83.5831 445.075 84.2826 444.215 84.8089C443.368 85.3351 442.348 85.5982 441.154 85.5982C439.961 85.5982 438.927 85.3351 438.055 84.8089C437.195 84.2826 436.534 83.5831 436.072 82.7104C435.61 81.8376 435.379 80.8814 435.379 79.8418ZM438.055 78.3594V79.8418C438.055 80.4322 438.164 80.9905 438.382 81.5167C438.613 82.043 438.96 82.4729 439.422 82.8066C439.884 83.1275 440.461 83.2879 441.154 83.2879C441.847 83.2879 442.419 83.1275 442.868 82.8066C443.317 82.4729 443.651 82.043 443.869 81.5167C444.087 80.9905 444.196 80.4322 444.196 79.8418V78.3594C444.196 77.7561 444.081 77.1914 443.85 76.6652C443.631 76.1261 443.291 75.6961 442.829 75.3753C442.38 75.0416 441.809 74.8747 441.116 74.8747C440.436 74.8747 439.864 75.0416 439.402 75.3753C438.953 75.6961 438.613 76.1261 438.382 76.6652C438.164 77.1914 438.055 77.7561 438.055 78.3594ZM449.028 95.6286V94.127C449.028 93.0745 449.259 92.1119 449.722 91.2391C450.184 90.3663 450.845 89.6669 451.705 89.1406C452.564 88.6144 453.585 88.3513 454.766 88.3513C455.972 88.3513 456.999 88.6144 457.846 89.1406C458.706 89.6669 459.367 90.3663 459.829 91.2391C460.291 92.1119 460.522 93.0745 460.522 94.127V95.6286C460.522 96.6811 460.291 97.6437 459.829 98.5165C459.38 99.3892 458.725 100.089 457.865 100.615C457.018 101.141 455.998 101.404 454.804 101.404C453.61 101.404 452.584 101.141 451.724 100.615C450.864 100.089 450.196 99.3892 449.722 98.5165C449.259 97.6437 449.028 96.6811 449.028 95.6286ZM451.705 94.127V95.6286C451.705 96.219 451.814 96.7838 452.032 97.3228C452.263 97.8491 452.609 98.279 453.071 98.6127C453.533 98.9336 454.111 99.094 454.804 99.094C455.497 99.094 456.068 98.9336 456.518 98.6127C456.98 98.279 457.32 97.8491 457.538 97.3228C457.756 96.7966 457.865 96.2319 457.865 95.6286V94.127C457.865 93.5237 457.75 92.959 457.519 92.4328C457.301 91.9065 456.96 91.483 456.498 91.1621C456.049 90.8284 455.472 90.6616 454.766 90.6616C454.085 90.6616 453.514 90.8284 453.052 91.1621C452.603 91.483 452.263 91.9065 452.032 92.4328C451.814 92.959 451.705 93.5237 451.705 94.127ZM455.651 76.954L441.963 98.863L439.961 97.5924L453.649 75.6833L455.651 76.954Z" fill="#EF2A82"/>
<path d="M389.809 127.351V127.148C389.809 126.463 389.908 125.827 390.107 125.241C390.307 124.649 390.594 124.137 390.969 123.703C391.344 123.264 391.798 122.924 392.331 122.684C392.864 122.438 393.462 122.314 394.124 122.314C394.792 122.314 395.393 122.438 395.926 122.684C396.465 122.924 396.922 123.264 397.297 123.703C397.678 124.137 397.968 124.649 398.167 125.241C398.366 125.827 398.466 126.463 398.466 127.148V127.351C398.466 128.036 398.366 128.672 398.167 129.258C397.968 129.844 397.678 130.356 397.297 130.796C396.922 131.229 396.468 131.569 395.935 131.815C395.407 132.056 394.81 132.176 394.142 132.176C393.474 132.176 392.873 132.056 392.34 131.815C391.807 131.569 391.35 131.229 390.969 130.796C390.594 130.356 390.307 129.844 390.107 129.258C389.908 128.672 389.809 128.036 389.809 127.351ZM391.435 127.148V127.351C391.435 127.825 391.49 128.273 391.602 128.695C391.713 129.111 391.88 129.48 392.103 129.803C392.331 130.125 392.615 130.38 392.955 130.567C393.295 130.749 393.69 130.84 394.142 130.84C394.587 130.84 394.977 130.749 395.311 130.567C395.65 130.38 395.932 130.125 396.154 129.803C396.377 129.48 396.544 129.111 396.655 128.695C396.772 128.273 396.831 127.825 396.831 127.351V127.148C396.831 126.68 396.772 126.237 396.655 125.821C396.544 125.399 396.374 125.027 396.146 124.705C395.923 124.377 395.642 124.119 395.302 123.932C394.968 123.744 394.575 123.65 394.124 123.65C393.679 123.65 393.286 123.744 392.946 123.932C392.612 124.119 392.331 124.377 392.103 124.705C391.88 125.027 391.713 125.399 391.602 125.821C391.49 126.237 391.435 126.68 391.435 127.148ZM402.131 124.318V135.656H400.496V122.49H401.99L402.131 124.318ZM408.538 127.166V127.351C408.538 128.042 408.456 128.684 408.292 129.275C408.128 129.861 407.888 130.371 407.571 130.805C407.261 131.238 406.877 131.575 406.42 131.815C405.963 132.056 405.438 132.176 404.847 132.176C404.243 132.176 403.71 132.076 403.247 131.877C402.784 131.678 402.392 131.388 402.069 131.007C401.747 130.626 401.489 130.169 401.296 129.636C401.108 129.103 400.979 128.502 400.909 127.834V126.85C400.979 126.146 401.111 125.517 401.305 124.96C401.498 124.403 401.753 123.929 402.069 123.536C402.392 123.138 402.781 122.836 403.238 122.631C403.695 122.42 404.223 122.314 404.82 122.314C405.418 122.314 405.948 122.432 406.411 122.666C406.874 122.895 407.264 123.223 407.58 123.65C407.896 124.078 408.134 124.591 408.292 125.188C408.456 125.78 408.538 126.439 408.538 127.166ZM406.903 127.351V127.166C406.903 126.691 406.854 126.246 406.754 125.83C406.654 125.408 406.499 125.039 406.288 124.723C406.083 124.4 405.819 124.148 405.497 123.967C405.175 123.779 404.791 123.686 404.346 123.686C403.936 123.686 403.578 123.756 403.273 123.896C402.975 124.037 402.72 124.228 402.509 124.468C402.298 124.702 402.125 124.972 401.99 125.276C401.861 125.575 401.765 125.886 401.7 126.208V128.484C401.817 128.895 401.981 129.281 402.192 129.645C402.403 130.002 402.685 130.292 403.036 130.515C403.388 130.731 403.83 130.84 404.363 130.84C404.803 130.84 405.181 130.749 405.497 130.567C405.819 130.38 406.083 130.125 406.288 129.803C406.499 129.48 406.654 129.111 406.754 128.695C406.854 128.273 406.903 127.825 406.903 127.351ZM414.594 122.49V123.738H409.452V122.49H414.594ZM411.192 120.179H412.818V129.645C412.818 129.967 412.868 130.21 412.968 130.374C413.067 130.538 413.196 130.646 413.354 130.699C413.513 130.752 413.683 130.778 413.864 130.778C413.999 130.778 414.14 130.767 414.286 130.743C414.438 130.714 414.553 130.69 414.629 130.673L414.638 132C414.509 132.041 414.339 132.079 414.128 132.114C413.923 132.155 413.674 132.176 413.381 132.176C412.982 132.176 412.616 132.097 412.282 131.938C411.948 131.78 411.682 131.517 411.482 131.147C411.289 130.772 411.192 130.269 411.192 129.636V120.179ZM418.268 122.49V132H416.633V122.49H418.268ZM416.51 119.968C416.51 119.704 416.589 119.481 416.747 119.3C416.911 119.118 417.151 119.027 417.468 119.027C417.778 119.027 418.016 119.118 418.18 119.3C418.35 119.481 418.435 119.704 418.435 119.968C418.435 120.22 418.35 120.437 418.18 120.618C418.016 120.794 417.778 120.882 417.468 120.882C417.151 120.882 416.911 120.794 416.747 120.618C416.589 120.437 416.51 120.22 416.51 119.968ZM420.447 127.351V127.148C420.447 126.463 420.547 125.827 420.746 125.241C420.945 124.649 421.232 124.137 421.607 123.703C421.982 123.264 422.437 122.924 422.97 122.684C423.503 122.438 424.101 122.314 424.763 122.314C425.431 122.314 426.031 122.438 426.564 122.684C427.104 122.924 427.561 123.264 427.936 123.703C428.316 124.137 428.606 124.649 428.806 125.241C429.005 125.827 429.104 126.463 429.104 127.148V127.351C429.104 128.036 429.005 128.672 428.806 129.258C428.606 129.844 428.316 130.356 427.936 130.796C427.561 131.229 427.106 131.569 426.573 131.815C426.046 132.056 425.448 132.176 424.78 132.176C424.112 132.176 423.512 132.056 422.979 131.815C422.445 131.569 421.988 131.229 421.607 130.796C421.232 130.356 420.945 129.844 420.746 129.258C420.547 128.672 420.447 128.036 420.447 127.351ZM422.073 127.148V127.351C422.073 127.825 422.129 128.273 422.24 128.695C422.352 129.111 422.519 129.48 422.741 129.803C422.97 130.125 423.254 130.38 423.594 130.567C423.934 130.749 424.329 130.84 424.78 130.84C425.226 130.84 425.615 130.749 425.949 130.567C426.289 130.38 426.57 130.125 426.793 129.803C427.016 129.48 427.183 129.111 427.294 128.695C427.411 128.273 427.47 127.825 427.47 127.351V127.148C427.47 126.68 427.411 126.237 427.294 125.821C427.183 125.399 427.013 125.027 426.784 124.705C426.562 124.377 426.28 124.119 425.94 123.932C425.606 123.744 425.214 123.65 424.763 123.65C424.317 123.65 423.925 123.744 423.585 123.932C423.251 124.119 422.97 124.377 422.741 124.705C422.519 125.027 422.352 125.399 422.24 125.821C422.129 126.237 422.073 126.68 422.073 127.148ZM432.77 124.521V132H431.144V122.49H432.682L432.77 124.521ZM432.383 126.885L431.706 126.858C431.712 126.208 431.809 125.607 431.996 125.057C432.184 124.5 432.447 124.017 432.787 123.606C433.127 123.196 433.531 122.88 434 122.657C434.475 122.429 434.999 122.314 435.573 122.314C436.042 122.314 436.464 122.379 436.839 122.508C437.214 122.631 437.533 122.83 437.797 123.105C438.066 123.381 438.271 123.738 438.412 124.178C438.553 124.611 438.623 125.142 438.623 125.769V132H436.988V125.751C436.988 125.253 436.915 124.854 436.769 124.556C436.622 124.251 436.408 124.031 436.127 123.896C435.846 123.756 435.5 123.686 435.09 123.686C434.686 123.686 434.316 123.771 433.982 123.94C433.654 124.11 433.37 124.345 433.13 124.644C432.896 124.942 432.711 125.285 432.576 125.672C432.447 126.053 432.383 126.457 432.383 126.885ZM450.726 119.133V132H449.1V121.163L445.821 122.358V120.891L450.471 119.133H450.726Z" fill="#8794BA"/>
<path d="M409.696 210.074V213H391.349V210.439L400.532 200.217C401.662 198.959 402.534 197.893 403.15 197.021C403.779 196.135 404.216 195.346 404.46 194.653C404.716 193.947 404.845 193.228 404.845 192.496C404.845 191.572 404.652 190.738 404.267 189.994C403.895 189.236 403.343 188.633 402.611 188.184C401.88 187.735 400.994 187.51 399.955 187.51C398.71 187.51 397.67 187.754 396.836 188.242C396.014 188.717 395.398 189.384 394.987 190.244C394.577 191.104 394.371 192.092 394.371 193.209H390.81C390.81 191.63 391.156 190.186 391.849 188.877C392.542 187.568 393.569 186.528 394.93 185.758C396.29 184.975 397.965 184.584 399.955 184.584C401.726 184.584 403.24 184.898 404.498 185.527C405.756 186.143 406.718 187.016 407.386 188.145C408.066 189.262 408.406 190.571 408.406 192.073C408.406 192.894 408.265 193.729 407.983 194.576C407.713 195.41 407.335 196.244 406.847 197.078C406.372 197.913 405.814 198.734 405.172 199.543C404.543 200.351 403.869 201.147 403.15 201.93L395.642 210.074H409.696ZM417.051 210.016H417.416C419.47 210.016 421.138 209.727 422.422 209.15C423.705 208.572 424.694 207.795 425.387 206.82C426.08 205.845 426.555 204.747 426.811 203.528C427.068 202.296 427.196 201.032 427.196 199.735V195.442C427.196 194.171 427.049 193.042 426.754 192.054C426.471 191.065 426.073 190.237 425.56 189.57C425.059 188.903 424.488 188.396 423.847 188.049C423.205 187.703 422.525 187.529 421.806 187.529C420.984 187.529 420.246 187.696 419.592 188.03C418.95 188.351 418.405 188.806 417.955 189.397C417.519 189.987 417.185 190.68 416.954 191.476C416.723 192.272 416.608 193.138 416.608 194.075C416.608 194.909 416.71 195.718 416.916 196.501C417.121 197.284 417.436 197.99 417.859 198.619C418.283 199.247 418.809 199.748 419.438 200.12C420.08 200.48 420.83 200.659 421.69 200.659C422.486 200.659 423.23 200.505 423.924 200.197C424.629 199.876 425.252 199.446 425.791 198.907C426.343 198.355 426.779 197.733 427.1 197.04C427.434 196.347 427.626 195.622 427.678 194.864H429.372C429.372 195.93 429.16 196.982 428.737 198.022C428.326 199.049 427.748 199.985 427.004 200.833C426.259 201.68 425.387 202.36 424.386 202.873C423.384 203.374 422.294 203.624 421.113 203.624C419.727 203.624 418.527 203.355 417.513 202.816C416.499 202.277 415.664 201.558 415.01 200.659C414.368 199.761 413.887 198.76 413.566 197.656C413.258 196.539 413.104 195.41 413.104 194.268C413.104 192.933 413.29 191.681 413.662 190.513C414.034 189.345 414.586 188.319 415.318 187.433C416.049 186.535 416.954 185.835 418.032 185.335C419.123 184.834 420.381 184.584 421.806 184.584C423.41 184.584 424.777 184.905 425.907 185.546C427.036 186.188 427.954 187.048 428.66 188.126C429.378 189.204 429.905 190.417 430.238 191.765C430.572 193.112 430.739 194.499 430.739 195.923V197.213C430.739 198.664 430.643 200.14 430.45 201.641C430.27 203.13 429.917 204.555 429.391 205.915C428.878 207.276 428.127 208.495 427.139 209.573C426.15 210.638 424.86 211.485 423.269 212.114C421.69 212.73 419.739 213.039 417.416 213.039H417.051V210.016ZM435.379 191.842V190.359C435.379 189.294 435.61 188.325 436.072 187.452C436.534 186.58 437.195 185.88 438.055 185.354C438.915 184.828 439.935 184.564 441.116 184.564C442.322 184.564 443.349 184.828 444.196 185.354C445.056 185.88 445.717 186.58 446.179 187.452C446.641 188.325 446.872 189.294 446.872 190.359V191.842C446.872 192.881 446.641 193.838 446.179 194.71C445.73 195.583 445.075 196.283 444.215 196.809C443.368 197.335 442.348 197.598 441.154 197.598C439.961 197.598 438.927 197.335 438.055 196.809C437.195 196.283 436.534 195.583 436.072 194.71C435.61 193.838 435.379 192.881 435.379 191.842ZM438.055 190.359V191.842C438.055 192.432 438.164 192.991 438.382 193.517C438.613 194.043 438.96 194.473 439.422 194.807C439.884 195.128 440.461 195.288 441.154 195.288C441.847 195.288 442.419 195.128 442.868 194.807C443.317 194.473 443.651 194.043 443.869 193.517C444.087 192.991 444.196 192.432 444.196 191.842V190.359C444.196 189.756 444.081 189.191 443.85 188.665C443.631 188.126 443.291 187.696 442.829 187.375C442.38 187.042 441.809 186.875 441.116 186.875C440.436 186.875 439.864 187.042 439.402 187.375C438.953 187.696 438.613 188.126 438.382 188.665C438.164 189.191 438.055 189.756 438.055 190.359ZM449.028 207.629V206.127C449.028 205.074 449.259 204.112 449.722 203.239C450.184 202.366 450.845 201.667 451.705 201.141C452.564 200.614 453.585 200.351 454.766 200.351C455.972 200.351 456.999 200.614 457.846 201.141C458.706 201.667 459.367 202.366 459.829 203.239C460.291 204.112 460.522 205.074 460.522 206.127V207.629C460.522 208.681 460.291 209.644 459.829 210.516C459.38 211.389 458.725 212.089 457.865 212.615C457.018 213.141 455.998 213.404 454.804 213.404C453.61 213.404 452.584 213.141 451.724 212.615C450.864 212.089 450.196 211.389 449.722 210.516C449.259 209.644 449.028 208.681 449.028 207.629ZM451.705 206.127V207.629C451.705 208.219 451.814 208.784 452.032 209.323C452.263 209.849 452.609 210.279 453.071 210.613C453.533 210.934 454.111 211.094 454.804 211.094C455.497 211.094 456.068 210.934 456.518 210.613C456.98 210.279 457.32 209.849 457.538 209.323C457.756 208.797 457.865 208.232 457.865 207.629V206.127C457.865 205.524 457.75 204.959 457.519 204.433C457.301 203.907 456.96 203.483 456.498 203.162C456.049 202.828 455.472 202.662 454.766 202.662C454.085 202.662 453.514 202.828 453.052 203.162C452.603 203.483 452.263 203.907 452.032 204.433C451.814 204.959 451.705 205.524 451.705 206.127ZM455.651 188.954L441.963 210.863L439.961 209.592L453.649 187.683L455.651 188.954Z" fill="#0088F0"/>
<path d="M389.809 239.351V239.148C389.809 238.463 389.908 237.827 390.107 237.241C390.307 236.649 390.594 236.137 390.969 235.703C391.344 235.264 391.798 234.924 392.331 234.684C392.864 234.438 393.462 234.314 394.124 234.314C394.792 234.314 395.393 234.438 395.926 234.684C396.465 234.924 396.922 235.264 397.297 235.703C397.678 236.137 397.968 236.649 398.167 237.241C398.366 237.827 398.466 238.463 398.466 239.148V239.351C398.466 240.036 398.366 240.672 398.167 241.258C397.968 241.844 397.678 242.356 397.297 242.796C396.922 243.229 396.468 243.569 395.935 243.815C395.407 244.056 394.81 244.176 394.142 244.176C393.474 244.176 392.873 244.056 392.34 243.815C391.807 243.569 391.35 243.229 390.969 242.796C390.594 242.356 390.307 241.844 390.107 241.258C389.908 240.672 389.809 240.036 389.809 239.351ZM391.435 239.148V239.351C391.435 239.825 391.49 240.273 391.602 240.695C391.713 241.111 391.88 241.48 392.103 241.803C392.331 242.125 392.615 242.38 392.955 242.567C393.295 242.749 393.69 242.84 394.142 242.84C394.587 242.84 394.977 242.749 395.311 242.567C395.65 242.38 395.932 242.125 396.154 241.803C396.377 241.48 396.544 241.111 396.655 240.695C396.772 240.273 396.831 239.825 396.831 239.351V239.148C396.831 238.68 396.772 238.237 396.655 237.821C396.544 237.399 396.374 237.027 396.146 236.705C395.923 236.377 395.642 236.119 395.302 235.932C394.968 235.744 394.575 235.65 394.124 235.65C393.679 235.65 393.286 235.744 392.946 235.932C392.612 236.119 392.331 236.377 392.103 236.705C391.88 237.027 391.713 237.399 391.602 237.821C391.49 238.237 391.435 238.68 391.435 239.148ZM402.131 236.318V247.656H400.496V234.49H401.99L402.131 236.318ZM408.538 239.166V239.351C408.538 240.042 408.456 240.684 408.292 241.275C408.128 241.861 407.888 242.371 407.571 242.805C407.261 243.238 406.877 243.575 406.42 243.815C405.963 244.056 405.438 244.176 404.847 244.176C404.243 244.176 403.71 244.076 403.247 243.877C402.784 243.678 402.392 243.388 402.069 243.007C401.747 242.626 401.489 242.169 401.296 241.636C401.108 241.103 400.979 240.502 400.909 239.834V238.85C400.979 238.146 401.111 237.517 401.305 236.96C401.498 236.403 401.753 235.929 402.069 235.536C402.392 235.138 402.781 234.836 403.238 234.631C403.695 234.42 404.223 234.314 404.82 234.314C405.418 234.314 405.948 234.432 406.411 234.666C406.874 234.895 407.264 235.223 407.58 235.65C407.896 236.078 408.134 236.591 408.292 237.188C408.456 237.78 408.538 238.439 408.538 239.166ZM406.903 239.351V239.166C406.903 238.691 406.854 238.246 406.754 237.83C406.654 237.408 406.499 237.039 406.288 236.723C406.083 236.4 405.819 236.148 405.497 235.967C405.175 235.779 404.791 235.686 404.346 235.686C403.936 235.686 403.578 235.756 403.273 235.896C402.975 236.037 402.72 236.228 402.509 236.468C402.298 236.702 402.125 236.972 401.99 237.276C401.861 237.575 401.765 237.886 401.7 238.208V240.484C401.817 240.895 401.981 241.281 402.192 241.645C402.403 242.002 402.685 242.292 403.036 242.515C403.388 242.731 403.83 242.84 404.363 242.84C404.803 242.84 405.181 242.749 405.497 242.567C405.819 242.38 406.083 242.125 406.288 241.803C406.499 241.48 406.654 241.111 406.754 240.695C406.854 240.273 406.903 239.825 406.903 239.351ZM414.594 234.49V235.738H409.452V234.49H414.594ZM411.192 232.179H412.818V241.645C412.818 241.967 412.868 242.21 412.968 242.374C413.067 242.538 413.196 242.646 413.354 242.699C413.513 242.752 413.683 242.778 413.864 242.778C413.999 242.778 414.14 242.767 414.286 242.743C414.438 242.714 414.553 242.69 414.629 242.673L414.638 244C414.509 244.041 414.339 244.079 414.128 244.114C413.923 244.155 413.674 244.176 413.381 244.176C412.982 244.176 412.616 244.097 412.282 243.938C411.948 243.78 411.682 243.517 411.482 243.147C411.289 242.772 411.192 242.269 411.192 241.636V232.179ZM418.268 234.49V244H416.633V234.49H418.268ZM416.51 231.968C416.51 231.704 416.589 231.481 416.747 231.3C416.911 231.118 417.151 231.027 417.468 231.027C417.778 231.027 418.016 231.118 418.18 231.3C418.35 231.481 418.435 231.704 418.435 231.968C418.435 232.22 418.35 232.437 418.18 232.618C418.016 232.794 417.778 232.882 417.468 232.882C417.151 232.882 416.911 232.794 416.747 232.618C416.589 232.437 416.51 232.22 416.51 231.968ZM420.447 239.351V239.148C420.447 238.463 420.547 237.827 420.746 237.241C420.945 236.649 421.232 236.137 421.607 235.703C421.982 235.264 422.437 234.924 422.97 234.684C423.503 234.438 424.101 234.314 424.763 234.314C425.431 234.314 426.031 234.438 426.564 234.684C427.104 234.924 427.561 235.264 427.936 235.703C428.316 236.137 428.606 236.649 428.806 237.241C429.005 237.827 429.104 238.463 429.104 239.148V239.351C429.104 240.036 429.005 240.672 428.806 241.258C428.606 241.844 428.316 242.356 427.936 242.796C427.561 243.229 427.106 243.569 426.573 243.815C426.046 244.056 425.448 244.176 424.78 244.176C424.112 244.176 423.512 244.056 422.979 243.815C422.445 243.569 421.988 243.229 421.607 242.796C421.232 242.356 420.945 241.844 420.746 241.258C420.547 240.672 420.447 240.036 420.447 239.351ZM422.073 239.148V239.351C422.073 239.825 422.129 240.273 422.24 240.695C422.352 241.111 422.519 241.48 422.741 241.803C422.97 242.125 423.254 242.38 423.594 242.567C423.934 242.749 424.329 242.84 424.78 242.84C425.226 242.84 425.615 242.749 425.949 242.567C426.289 242.38 426.57 242.125 426.793 241.803C427.016 241.48 427.183 241.111 427.294 240.695C427.411 240.273 427.47 239.825 427.47 239.351V239.148C427.47 238.68 427.411 238.237 427.294 237.821C427.183 237.399 427.013 237.027 426.784 236.705C426.562 236.377 426.28 236.119 425.94 235.932C425.606 235.744 425.214 235.65 424.763 235.65C424.317 235.65 423.925 235.744 423.585 235.932C423.251 236.119 422.97 236.377 422.741 236.705C422.519 237.027 422.352 237.399 422.24 237.821C422.129 238.237 422.073 238.68 422.073 239.148ZM432.77 236.521V244H431.144V234.49H432.682L432.77 236.521ZM432.383 238.885L431.706 238.858C431.712 238.208 431.809 237.607 431.996 237.057C432.184 236.5 432.447 236.017 432.787 235.606C433.127 235.196 433.531 234.88 434 234.657C434.475 234.429 434.999 234.314 435.573 234.314C436.042 234.314 436.464 234.379 436.839 234.508C437.214 234.631 437.533 234.83 437.797 235.105C438.066 235.381 438.271 235.738 438.412 236.178C438.553 236.611 438.623 237.142 438.623 237.769V244H436.988V237.751C436.988 237.253 436.915 236.854 436.769 236.556C436.622 236.251 436.408 236.031 436.127 235.896C435.846 235.756 435.5 235.686 435.09 235.686C434.686 235.686 434.316 235.771 433.982 235.94C433.654 236.11 433.37 236.345 433.13 236.644C432.896 236.942 432.711 237.285 432.576 237.672C432.447 238.053 432.383 238.457 432.383 238.885ZM453.767 242.664V244H445.391V242.831L449.583 238.164C450.099 237.59 450.497 237.104 450.778 236.705C451.065 236.301 451.265 235.94 451.376 235.624C451.493 235.302 451.552 234.974 451.552 234.64C451.552 234.218 451.464 233.837 451.288 233.497C451.118 233.151 450.866 232.876 450.532 232.671C450.198 232.466 449.794 232.363 449.319 232.363C448.751 232.363 448.276 232.475 447.896 232.697C447.521 232.914 447.239 233.219 447.052 233.611C446.864 234.004 446.771 234.455 446.771 234.965H445.145C445.145 234.244 445.303 233.585 445.619 232.987C445.936 232.39 446.404 231.915 447.025 231.563C447.646 231.206 448.411 231.027 449.319 231.027C450.128 231.027 450.819 231.171 451.394 231.458C451.968 231.739 452.407 232.138 452.712 232.653C453.022 233.163 453.178 233.761 453.178 234.446C453.178 234.821 453.113 235.202 452.984 235.589C452.861 235.97 452.688 236.351 452.466 236.731C452.249 237.112 451.994 237.487 451.701 237.856C451.414 238.226 451.106 238.589 450.778 238.946L447.351 242.664H453.767Z" fill="#8794BA"/>
<path d="M145.613 4.42188V13H144.529V5.77539L142.344 6.57227V5.59375L145.443 4.42188H145.613ZM154.18 10.6914C154.18 11.2109 154.059 11.6523 153.816 12.0156C153.578 12.375 153.254 12.6484 152.844 12.8359C152.438 13.0234 151.979 13.1172 151.467 13.1172C150.955 13.1172 150.494 13.0234 150.084 12.8359C149.674 12.6484 149.35 12.375 149.111 12.0156C148.873 11.6523 148.754 11.2109 148.754 10.6914C148.754 10.3516 148.818 10.041 148.947 9.75977C149.08 9.47461 149.266 9.22656 149.504 9.01562C149.746 8.80469 150.031 8.64258 150.359 8.5293C150.691 8.41211 151.057 8.35352 151.455 8.35352C151.979 8.35352 152.445 8.45508 152.855 8.6582C153.266 8.85742 153.588 9.13281 153.822 9.48438C154.061 9.83594 154.18 10.2383 154.18 10.6914ZM153.09 10.668C153.09 10.3516 153.021 10.0723 152.885 9.83008C152.748 9.58398 152.557 9.39258 152.311 9.25586C152.064 9.11914 151.779 9.05078 151.455 9.05078C151.123 9.05078 150.836 9.11914 150.594 9.25586C150.355 9.39258 150.17 9.58398 150.037 9.83008C149.904 10.0723 149.838 10.3516 149.838 10.668C149.838 10.9961 149.902 11.2773 150.031 11.5117C150.164 11.7422 150.352 11.9199 150.594 12.0449C150.84 12.166 151.131 12.2266 151.467 12.2266C151.803 12.2266 152.092 12.166 152.334 12.0449C152.576 11.9199 152.762 11.7422 152.891 11.5117C153.023 11.2773 153.09 10.9961 153.09 10.668ZM153.98 6.68945C153.98 7.10352 153.871 7.47656 153.652 7.80859C153.434 8.14062 153.135 8.40234 152.756 8.59375C152.377 8.78516 151.947 8.88086 151.467 8.88086C150.979 8.88086 150.543 8.78516 150.16 8.59375C149.781 8.40234 149.484 8.14062 149.27 7.80859C149.055 7.47656 148.947 7.10352 148.947 6.68945C148.947 6.19336 149.055 5.77148 149.27 5.42383C149.488 5.07617 149.787 4.81055 150.166 4.62695C150.545 4.44336 150.977 4.35156 151.461 4.35156C151.949 4.35156 152.383 4.44336 152.762 4.62695C153.141 4.81055 153.438 5.07617 153.652 5.42383C153.871 5.77148 153.98 6.19336 153.98 6.68945ZM152.896 6.70703C152.896 6.42188 152.836 6.16992 152.715 5.95117C152.594 5.73242 152.426 5.56055 152.211 5.43555C151.996 5.30664 151.746 5.24219 151.461 5.24219C151.176 5.24219 150.926 5.30273 150.711 5.42383C150.5 5.54102 150.334 5.70898 150.213 5.92773C150.096 6.14648 150.037 6.40625 150.037 6.70703C150.037 7 150.096 7.25586 150.213 7.47461C150.334 7.69336 150.502 7.86328 150.717 7.98438C150.932 8.10547 151.182 8.16602 151.467 8.16602C151.752 8.16602 152 8.10547 152.211 7.98438C152.426 7.86328 152.594 7.69336 152.715 7.47461C152.836 7.25586 152.896 7 152.896 6.70703ZM157.924 8.92773V9.81836H155.064V8.92773H157.924ZM164.457 12.1094V13H158.873V12.2207L161.668 9.10938C162.012 8.72656 162.277 8.40234 162.465 8.13672C162.656 7.86719 162.789 7.62695 162.863 7.41602C162.941 7.20117 162.98 6.98242 162.98 6.75977C162.98 6.47852 162.922 6.22461 162.805 5.99805C162.691 5.76758 162.523 5.58398 162.301 5.44727C162.078 5.31055 161.809 5.24219 161.492 5.24219C161.113 5.24219 160.797 5.31641 160.543 5.46484C160.293 5.60938 160.105 5.8125 159.98 6.07422C159.855 6.33594 159.793 6.63672 159.793 6.97656H158.709C158.709 6.49609 158.814 6.05664 159.025 5.6582C159.236 5.25977 159.549 4.94336 159.963 4.70898C160.377 4.4707 160.887 4.35156 161.492 4.35156C162.031 4.35156 162.492 4.44727 162.875 4.63867C163.258 4.82617 163.551 5.0918 163.754 5.43555C163.961 5.77539 164.064 6.17383 164.064 6.63086C164.064 6.88086 164.021 7.13477 163.936 7.39258C163.854 7.64648 163.738 7.90039 163.59 8.1543C163.445 8.4082 163.275 8.6582 163.08 8.9043C162.889 9.15039 162.684 9.39258 162.465 9.63086L160.18 12.1094H164.457ZM171.383 10.1289V11.0195H165.219V10.3809L169.039 4.46875H169.924L168.975 6.17969L166.449 10.1289H171.383ZM170.193 4.46875V13H169.109V4.46875H170.193Z" fill="#8794BA"/>
<path d="M288.641 90.1094V91H283.057V90.2207L285.852 87.1094C286.195 86.7266 286.461 86.4023 286.648 86.1367C286.84 85.8672 286.973 85.627 287.047 85.416C287.125 85.2012 287.164 84.9824 287.164 84.7598C287.164 84.4785 287.105 84.2246 286.988 83.998C286.875 83.7676 286.707 83.584 286.484 83.4473C286.262 83.3105 285.992 83.2422 285.676 83.2422C285.297 83.2422 284.98 83.3164 284.727 83.4648C284.477 83.6094 284.289 83.8125 284.164 84.0742C284.039 84.3359 283.977 84.6367 283.977 84.9766H282.893C282.893 84.4961 282.998 84.0566 283.209 83.6582C283.42 83.2598 283.732 82.9434 284.146 82.709C284.561 82.4707 285.07 82.3516 285.676 82.3516C286.215 82.3516 286.676 82.4473 287.059 82.6387C287.441 82.8262 287.734 83.0918 287.938 83.4355C288.145 83.7754 288.248 84.1738 288.248 84.6309C288.248 84.8809 288.205 85.1348 288.119 85.3926C288.037 85.6465 287.922 85.9004 287.773 86.1543C287.629 86.4082 287.459 86.6582 287.264 86.9043C287.072 87.1504 286.867 87.3926 286.648 87.6309L284.363 90.1094H288.641ZM291.172 86.9395L290.305 86.7168L290.732 82.4688H295.109V83.4707H291.652L291.395 85.791C291.551 85.7012 291.748 85.6172 291.986 85.5391C292.229 85.4609 292.506 85.4219 292.818 85.4219C293.213 85.4219 293.566 85.4902 293.879 85.627C294.191 85.7598 294.457 85.9512 294.676 86.2012C294.898 86.4512 295.068 86.752 295.186 87.1035C295.303 87.4551 295.361 87.8477 295.361 88.2812C295.361 88.6914 295.305 89.0684 295.191 89.4121C295.082 89.7559 294.916 90.0566 294.693 90.3145C294.471 90.5684 294.189 90.7656 293.85 90.9062C293.514 91.0469 293.117 91.1172 292.66 91.1172C292.316 91.1172 291.99 91.0703 291.682 90.9766C291.377 90.8789 291.104 90.7324 290.861 90.5371C290.623 90.3379 290.428 90.0918 290.275 89.7988C290.127 89.502 290.033 89.1543 289.994 88.7559H291.025C291.072 89.0762 291.166 89.3457 291.307 89.5645C291.447 89.7832 291.631 89.9492 291.857 90.0625C292.088 90.1719 292.355 90.2266 292.66 90.2266C292.918 90.2266 293.146 90.1816 293.346 90.0918C293.545 90.002 293.713 89.873 293.85 89.7051C293.986 89.5371 294.09 89.334 294.16 89.0957C294.234 88.8574 294.271 88.5898 294.271 88.293C294.271 88.0234 294.234 87.7734 294.16 87.543C294.086 87.3125 293.975 87.1113 293.826 86.9395C293.682 86.7676 293.504 86.6348 293.293 86.541C293.082 86.4434 292.84 86.3945 292.566 86.3945C292.203 86.3945 291.928 86.4434 291.74 86.541C291.557 86.6387 291.367 86.7715 291.172 86.9395ZM298.924 86.9277V87.8184H296.064V86.9277H298.924ZM301.449 86.2012H302.223C302.602 86.2012 302.914 86.1387 303.16 86.0137C303.41 85.8848 303.596 85.7109 303.717 85.4922C303.842 85.2695 303.904 85.0195 303.904 84.7422C303.904 84.4141 303.85 84.1387 303.74 83.916C303.631 83.6934 303.467 83.5254 303.248 83.4121C303.029 83.2988 302.752 83.2422 302.416 83.2422C302.111 83.2422 301.842 83.3027 301.607 83.4238C301.377 83.541 301.195 83.709 301.062 83.9277C300.934 84.1465 300.869 84.4043 300.869 84.7012H299.785C299.785 84.2676 299.895 83.873 300.113 83.5176C300.332 83.1621 300.639 82.8789 301.033 82.668C301.432 82.457 301.893 82.3516 302.416 82.3516C302.932 82.3516 303.383 82.4434 303.77 82.627C304.156 82.8066 304.457 83.0762 304.672 83.4355C304.887 83.791 304.994 84.2344 304.994 84.7656C304.994 84.9805 304.943 85.2109 304.842 85.457C304.744 85.6992 304.59 85.9258 304.379 86.1367C304.172 86.3477 303.902 86.5215 303.57 86.6582C303.238 86.791 302.84 86.8574 302.375 86.8574H301.449V86.2012ZM301.449 87.0918V86.4414H302.375C302.918 86.4414 303.367 86.5059 303.723 86.6348C304.078 86.7637 304.357 86.9355 304.561 87.1504C304.768 87.3652 304.912 87.6016 304.994 87.8594C305.08 88.1133 305.123 88.3672 305.123 88.6211C305.123 89.0195 305.055 89.373 304.918 89.6816C304.785 89.9902 304.596 90.252 304.35 90.4668C304.107 90.6816 303.822 90.8438 303.494 90.9531C303.166 91.0625 302.809 91.1172 302.422 91.1172C302.051 91.1172 301.701 91.0645 301.373 90.959C301.049 90.8535 300.762 90.7012 300.512 90.502C300.262 90.2988 300.066 90.0508 299.926 89.7578C299.785 89.4609 299.715 89.123 299.715 88.7441H300.799C300.799 89.041 300.863 89.3008 300.992 89.5234C301.125 89.7461 301.312 89.9199 301.555 90.0449C301.801 90.166 302.09 90.2266 302.422 90.2266C302.754 90.2266 303.039 90.1699 303.277 90.0566C303.52 89.9395 303.705 89.7637 303.834 89.5293C303.967 89.2949 304.033 89 304.033 88.6445C304.033 88.2891 303.959 87.998 303.811 87.7715C303.662 87.541 303.451 87.3711 303.178 87.2617C302.908 87.1484 302.59 87.0918 302.223 87.0918H301.449ZM312.383 88.1289V89.0195H306.219V88.3809L310.039 82.4688H310.924L309.975 84.1797L307.449 88.1289H312.383ZM311.193 82.4688V91H310.109V82.4688H311.193Z" fill="#8794BA"/>
<path d="M284.633 217.201H285.406C285.785 217.201 286.098 217.139 286.344 217.014C286.594 216.885 286.779 216.711 286.9 216.492C287.025 216.27 287.088 216.02 287.088 215.742C287.088 215.414 287.033 215.139 286.924 214.916C286.814 214.693 286.65 214.525 286.432 214.412C286.213 214.299 285.936 214.242 285.6 214.242C285.295 214.242 285.025 214.303 284.791 214.424C284.561 214.541 284.379 214.709 284.246 214.928C284.117 215.146 284.053 215.404 284.053 215.701H282.969C282.969 215.268 283.078 214.873 283.297 214.518C283.516 214.162 283.822 213.879 284.217 213.668C284.615 213.457 285.076 213.352 285.6 213.352C286.115 213.352 286.566 213.443 286.953 213.627C287.34 213.807 287.641 214.076 287.855 214.436C288.07 214.791 288.178 215.234 288.178 215.766C288.178 215.98 288.127 216.211 288.025 216.457C287.928 216.699 287.773 216.926 287.562 217.137C287.355 217.348 287.086 217.521 286.754 217.658C286.422 217.791 286.023 217.857 285.559 217.857H284.633V217.201ZM284.633 218.092V217.441H285.559C286.102 217.441 286.551 217.506 286.906 217.635C287.262 217.764 287.541 217.936 287.744 218.15C287.951 218.365 288.096 218.602 288.178 218.859C288.264 219.113 288.307 219.367 288.307 219.621C288.307 220.02 288.238 220.373 288.102 220.682C287.969 220.99 287.779 221.252 287.533 221.467C287.291 221.682 287.006 221.844 286.678 221.953C286.35 222.062 285.992 222.117 285.605 222.117C285.234 222.117 284.885 222.064 284.557 221.959C284.232 221.854 283.945 221.701 283.695 221.502C283.445 221.299 283.25 221.051 283.109 220.758C282.969 220.461 282.898 220.123 282.898 219.744H283.982C283.982 220.041 284.047 220.301 284.176 220.523C284.309 220.746 284.496 220.92 284.738 221.045C284.984 221.166 285.273 221.227 285.605 221.227C285.938 221.227 286.223 221.17 286.461 221.057C286.703 220.939 286.889 220.764 287.018 220.529C287.15 220.295 287.217 220 287.217 219.645C287.217 219.289 287.143 218.998 286.994 218.771C286.846 218.541 286.635 218.371 286.361 218.262C286.092 218.148 285.773 218.092 285.406 218.092H284.633ZM291.172 217.939L290.305 217.717L290.732 213.469H295.109V214.471H291.652L291.395 216.791C291.551 216.701 291.748 216.617 291.986 216.539C292.229 216.461 292.506 216.422 292.818 216.422C293.213 216.422 293.566 216.49 293.879 216.627C294.191 216.76 294.457 216.951 294.676 217.201C294.898 217.451 295.068 217.752 295.186 218.104C295.303 218.455 295.361 218.848 295.361 219.281C295.361 219.691 295.305 220.068 295.191 220.412C295.082 220.756 294.916 221.057 294.693 221.314C294.471 221.568 294.189 221.766 293.85 221.906C293.514 222.047 293.117 222.117 292.66 222.117C292.316 222.117 291.99 222.07 291.682 221.977C291.377 221.879 291.104 221.732 290.861 221.537C290.623 221.338 290.428 221.092 290.275 220.799C290.127 220.502 290.033 220.154 289.994 219.756H291.025C291.072 220.076 291.166 220.346 291.307 220.564C291.447 220.783 291.631 220.949 291.857 221.062C292.088 221.172 292.355 221.227 292.66 221.227C292.918 221.227 293.146 221.182 293.346 221.092C293.545 221.002 293.713 220.873 293.85 220.705C293.986 220.537 294.09 220.334 294.16 220.096C294.234 219.857 294.271 219.59 294.271 219.293C294.271 219.023 294.234 218.773 294.16 218.543C294.086 218.312 293.975 218.111 293.826 217.939C293.682 217.768 293.504 217.635 293.293 217.541C293.082 217.443 292.84 217.395 292.566 217.395C292.203 217.395 291.928 217.443 291.74 217.541C291.557 217.639 291.367 217.771 291.172 217.939ZM298.924 217.928V218.818H296.064V217.928H298.924ZM305.633 219.129V220.02H299.469V219.381L303.289 213.469H304.174L303.225 215.18L300.699 219.129H305.633ZM304.443 213.469V222H303.359V213.469H304.443ZM312.383 219.129V220.02H306.219V219.381L310.039 213.469H310.924L309.975 215.18L307.449 219.129H312.383ZM311.193 213.469V222H310.109V213.469H311.193Z" fill="#8794BA"/>
<path d="M147.816 304.129V305.02H141.652V304.381L145.473 298.469H146.357L145.408 300.18L142.883 304.129H147.816ZM146.627 298.469V307H145.543V298.469H146.627ZM150.172 302.939L149.305 302.717L149.732 298.469H154.109V299.471H150.652L150.395 301.791C150.551 301.701 150.748 301.617 150.986 301.539C151.229 301.461 151.506 301.422 151.818 301.422C152.213 301.422 152.566 301.49 152.879 301.627C153.191 301.76 153.457 301.951 153.676 302.201C153.898 302.451 154.068 302.752 154.186 303.104C154.303 303.455 154.361 303.848 154.361 304.281C154.361 304.691 154.305 305.068 154.191 305.412C154.082 305.756 153.916 306.057 153.693 306.314C153.471 306.568 153.189 306.766 152.85 306.906C152.514 307.047 152.117 307.117 151.66 307.117C151.316 307.117 150.99 307.07 150.682 306.977C150.377 306.879 150.104 306.732 149.861 306.537C149.623 306.338 149.428 306.092 149.275 305.799C149.127 305.502 149.033 305.154 148.994 304.756H150.025C150.072 305.076 150.166 305.346 150.307 305.564C150.447 305.783 150.631 305.949 150.857 306.062C151.088 306.172 151.355 306.227 151.66 306.227C151.918 306.227 152.146 306.182 152.346 306.092C152.545 306.002 152.713 305.873 152.85 305.705C152.986 305.537 153.09 305.334 153.16 305.096C153.234 304.857 153.271 304.59 153.271 304.293C153.271 304.023 153.234 303.773 153.16 303.543C153.086 303.312 152.975 303.111 152.826 302.939C152.682 302.768 152.504 302.635 152.293 302.541C152.082 302.443 151.84 302.395 151.566 302.395C151.203 302.395 150.928 302.443 150.74 302.541C150.557 302.639 150.367 302.771 150.172 302.939ZM157.924 302.928V303.818H155.064V302.928H157.924ZM160.238 302.939L159.371 302.717L159.799 298.469H164.176V299.471H160.719L160.461 301.791C160.617 301.701 160.814 301.617 161.053 301.539C161.295 301.461 161.572 301.422 161.885 301.422C162.279 301.422 162.633 301.49 162.945 301.627C163.258 301.76 163.523 301.951 163.742 302.201C163.965 302.451 164.135 302.752 164.252 303.104C164.369 303.455 164.428 303.848 164.428 304.281C164.428 304.691 164.371 305.068 164.258 305.412C164.148 305.756 163.982 306.057 163.76 306.314C163.537 306.568 163.256 306.766 162.916 306.906C162.58 307.047 162.184 307.117 161.727 307.117C161.383 307.117 161.057 307.07 160.748 306.977C160.443 306.879 160.17 306.732 159.928 306.537C159.689 306.338 159.494 306.092 159.342 305.799C159.193 305.502 159.1 305.154 159.061 304.756H160.092C160.139 305.076 160.232 305.346 160.373 305.564C160.514 305.783 160.697 305.949 160.924 306.062C161.154 306.172 161.422 306.227 161.727 306.227C161.984 306.227 162.213 306.182 162.412 306.092C162.611 306.002 162.779 305.873 162.916 305.705C163.053 305.537 163.156 305.334 163.227 305.096C163.301 304.857 163.338 304.59 163.338 304.293C163.338 304.023 163.301 303.773 163.227 303.543C163.152 303.312 163.041 303.111 162.893 302.939C162.748 302.768 162.57 302.635 162.359 302.541C162.148 302.443 161.906 302.395 161.633 302.395C161.27 302.395 160.994 302.443 160.807 302.541C160.623 302.639 160.434 302.771 160.238 302.939ZM171.383 304.129V305.02H165.219V304.381L169.039 298.469H169.924L168.975 300.18L166.449 304.129H171.383ZM170.193 298.469V307H169.109V298.469H170.193Z" fill="#8794BA"/>
<path d="M2.42188 217.939L1.55469 217.717L1.98242 213.469H6.35938V214.471H2.90234L2.64453 216.791C2.80078 216.701 2.99805 216.617 3.23633 216.539C3.47852 216.461 3.75586 216.422 4.06836 216.422C4.46289 216.422 4.81641 216.49 5.12891 216.627C5.44141 216.76 5.70703 216.951 5.92578 217.201C6.14844 217.451 6.31836 217.752 6.43555 218.104C6.55273 218.455 6.61133 218.848 6.61133 219.281C6.61133 219.691 6.55469 220.068 6.44141 220.412C6.33203 220.756 6.16602 221.057 5.94336 221.314C5.7207 221.568 5.43945 221.766 5.09961 221.906C4.76367 222.047 4.36719 222.117 3.91016 222.117C3.56641 222.117 3.24023 222.07 2.93164 221.977C2.62695 221.879 2.35352 221.732 2.11133 221.537C1.87305 221.338 1.67773 221.092 1.52539 220.799C1.37695 220.502 1.2832 220.154 1.24414 219.756H2.27539C2.32227 220.076 2.41602 220.346 2.55664 220.564C2.69727 220.783 2.88086 220.949 3.10742 221.062C3.33789 221.172 3.60547 221.227 3.91016 221.227C4.16797 221.227 4.39648 221.182 4.5957 221.092C4.79492 221.002 4.96289 220.873 5.09961 220.705C5.23633 220.537 5.33984 220.334 5.41016 220.096C5.48438 219.857 5.52148 219.59 5.52148 219.293C5.52148 219.023 5.48438 218.773 5.41016 218.543C5.33594 218.312 5.22461 218.111 5.07617 217.939C4.93164 217.768 4.75391 217.635 4.54297 217.541C4.33203 217.443 4.08984 217.395 3.81641 217.395C3.45312 217.395 3.17773 217.443 2.99023 217.541C2.80664 217.639 2.61719 217.771 2.42188 217.939ZM9.17188 217.939L8.30469 217.717L8.73242 213.469H13.1094V214.471H9.65234L9.39453 216.791C9.55078 216.701 9.74805 216.617 9.98633 216.539C10.2285 216.461 10.5059 216.422 10.8184 216.422C11.2129 216.422 11.5664 216.49 11.8789 216.627C12.1914 216.76 12.457 216.951 12.6758 217.201C12.8984 217.451 13.0684 217.752 13.1855 218.104C13.3027 218.455 13.3613 218.848 13.3613 219.281C13.3613 219.691 13.3047 220.068 13.1914 220.412C13.082 220.756 12.916 221.057 12.6934 221.314C12.4707 221.568 12.1895 221.766 11.8496 221.906C11.5137 222.047 11.1172 222.117 10.6602 222.117C10.3164 222.117 9.99023 222.07 9.68164 221.977C9.37695 221.879 9.10352 221.732 8.86133 221.537C8.62305 221.338 8.42773 221.092 8.27539 220.799C8.12695 220.502 8.0332 220.154 7.99414 219.756H9.02539C9.07227 220.076 9.16602 220.346 9.30664 220.564C9.44727 220.783 9.63086 220.949 9.85742 221.062C10.0879 221.172 10.3555 221.227 10.6602 221.227C10.918 221.227 11.1465 221.182 11.3457 221.092C11.5449 221.002 11.7129 220.873 11.8496 220.705C11.9863 220.537 12.0898 220.334 12.1602 220.096C12.2344 219.857 12.2715 219.59 12.2715 219.293C12.2715 219.023 12.2344 218.773 12.1602 218.543C12.0859 218.312 11.9746 218.111 11.8262 217.939C11.6816 217.768 11.5039 217.635 11.293 217.541C11.082 217.443 10.8398 217.395 10.5664 217.395C10.2031 217.395 9.92773 217.443 9.74023 217.541C9.55664 217.639 9.36719 217.771 9.17188 217.939ZM16.9238 217.928V218.818H14.0645V217.928H16.9238ZM22.0273 213.457H22.1211V214.377H22.0273C21.4531 214.377 20.9727 214.471 20.5859 214.658C20.1992 214.842 19.8926 215.09 19.666 215.402C19.4395 215.711 19.2754 216.059 19.1738 216.445C19.0762 216.832 19.0273 217.225 19.0273 217.623V218.877C19.0273 219.256 19.0723 219.592 19.1621 219.885C19.252 220.174 19.375 220.418 19.5312 220.617C19.6875 220.816 19.8633 220.967 20.0586 221.068C20.2578 221.17 20.4648 221.221 20.6797 221.221C20.9297 221.221 21.1523 221.174 21.3477 221.08C21.543 220.982 21.707 220.848 21.8398 220.676C21.9766 220.5 22.0801 220.293 22.1504 220.055C22.2207 219.816 22.2559 219.555 22.2559 219.27C22.2559 219.016 22.2246 218.771 22.1621 218.537C22.0996 218.299 22.0039 218.088 21.875 217.904C21.7461 217.717 21.584 217.57 21.3887 217.465C21.1973 217.355 20.9688 217.301 20.7031 217.301C20.4023 217.301 20.1211 217.375 19.8594 217.523C19.6016 217.668 19.3887 217.859 19.2207 218.098C19.0566 218.332 18.9629 218.588 18.9395 218.865L18.3652 218.859C18.4199 218.422 18.5215 218.049 18.6699 217.74C18.8223 217.428 19.0098 217.174 19.2324 216.979C19.459 216.779 19.7109 216.635 19.9883 216.545C20.2695 216.451 20.5664 216.404 20.8789 216.404C21.3047 216.404 21.6719 216.484 21.9805 216.645C22.2891 216.805 22.543 217.02 22.7422 217.289C22.9414 217.555 23.0879 217.855 23.1816 218.191C23.2793 218.523 23.3281 218.865 23.3281 219.217C23.3281 219.619 23.2715 219.996 23.1582 220.348C23.0449 220.699 22.875 221.008 22.6484 221.273C22.4258 221.539 22.1504 221.746 21.8223 221.895C21.4941 222.043 21.1133 222.117 20.6797 222.117C20.2188 222.117 19.8164 222.023 19.4727 221.836C19.1289 221.645 18.8438 221.391 18.6172 221.074C18.3906 220.758 18.2207 220.406 18.1074 220.02C17.9941 219.633 17.9375 219.24 17.9375 218.842V218.332C17.9375 217.73 17.998 217.141 18.1191 216.562C18.2402 215.984 18.4492 215.461 18.7461 214.992C19.0469 214.523 19.4629 214.15 19.9941 213.873C20.5254 213.596 21.2031 213.457 22.0273 213.457ZM30.3828 219.129V220.02H24.2188V219.381L28.0391 213.469H28.9238L27.9746 215.18L25.4492 219.129H30.3828ZM29.1934 213.469V222H28.1094V213.469H29.1934Z" fill="#8794BA"/>
<path d="M10.2148 82.457H10.3086V83.377H10.2148C9.64062 83.377 9.16016 83.4707 8.77344 83.6582C8.38672 83.8418 8.08008 84.0898 7.85352 84.4023C7.62695 84.7109 7.46289 85.0586 7.36133 85.4453C7.26367 85.832 7.21484 86.2246 7.21484 86.623V87.877C7.21484 88.2559 7.25977 88.5918 7.34961 88.8848C7.43945 89.1738 7.5625 89.418 7.71875 89.6172C7.875 89.8164 8.05078 89.9668 8.24609 90.0684C8.44531 90.1699 8.65234 90.2207 8.86719 90.2207C9.11719 90.2207 9.33984 90.1738 9.53516 90.0801C9.73047 89.9824 9.89453 89.8477 10.0273 89.6758C10.1641 89.5 10.2676 89.293 10.3379 89.0547C10.4082 88.8164 10.4434 88.5547 10.4434 88.2695C10.4434 88.0156 10.4121 87.7715 10.3496 87.5371C10.2871 87.2988 10.1914 87.0879 10.0625 86.9043C9.93359 86.7168 9.77148 86.5703 9.57617 86.4648C9.38477 86.3555 9.15625 86.3008 8.89062 86.3008C8.58984 86.3008 8.30859 86.375 8.04688 86.5234C7.78906 86.668 7.57617 86.8594 7.4082 87.0977C7.24414 87.332 7.15039 87.5879 7.12695 87.8652L6.55273 87.8594C6.60742 87.4219 6.70898 87.0488 6.85742 86.7402C7.00977 86.4277 7.19727 86.1738 7.41992 85.9785C7.64648 85.7793 7.89844 85.6348 8.17578 85.5449C8.45703 85.4512 8.75391 85.4043 9.06641 85.4043C9.49219 85.4043 9.85938 85.4844 10.168 85.6445C10.4766 85.8047 10.7305 86.0195 10.9297 86.2891C11.1289 86.5547 11.2754 86.8555 11.3691 87.1914C11.4668 87.5234 11.5156 87.8652 11.5156 88.2168C11.5156 88.6191 11.459 88.9961 11.3457 89.3477C11.2324 89.6992 11.0625 90.0078 10.8359 90.2734C10.6133 90.5391 10.3379 90.7461 10.0098 90.8945C9.68164 91.043 9.30078 91.1172 8.86719 91.1172C8.40625 91.1172 8.00391 91.0234 7.66016 90.8359C7.31641 90.6445 7.03125 90.3906 6.80469 90.0742C6.57812 89.7578 6.4082 89.4062 6.29492 89.0195C6.18164 88.6328 6.125 88.2402 6.125 87.8418V87.332C6.125 86.7305 6.18555 86.1406 6.30664 85.5625C6.42773 84.9844 6.63672 84.4609 6.93359 83.9922C7.23438 83.5234 7.65039 83.1504 8.18164 82.873C8.71289 82.5957 9.39062 82.457 10.2148 82.457ZM14.1758 86.9395L13.3086 86.7168L13.7363 82.4688H18.1133V83.4707H14.6562L14.3984 85.791C14.5547 85.7012 14.752 85.6172 14.9902 85.5391C15.2324 85.4609 15.5098 85.4219 15.8223 85.4219C16.2168 85.4219 16.5703 85.4902 16.8828 85.627C17.1953 85.7598 17.4609 85.9512 17.6797 86.2012C17.9023 86.4512 18.0723 86.752 18.1895 87.1035C18.3066 87.4551 18.3652 87.8477 18.3652 88.2812C18.3652 88.6914 18.3086 89.0684 18.1953 89.4121C18.0859 89.7559 17.9199 90.0566 17.6973 90.3145C17.4746 90.5684 17.1934 90.7656 16.8535 90.9062C16.5176 91.0469 16.1211 91.1172 15.6641 91.1172C15.3203 91.1172 14.9941 91.0703 14.6855 90.9766C14.3809 90.8789 14.1074 90.7324 13.8652 90.5371C13.627 90.3379 13.4316 90.0918 13.2793 89.7988C13.1309 89.502 13.0371 89.1543 12.998 88.7559H14.0293C14.0762 89.0762 14.1699 89.3457 14.3105 89.5645C14.4512 89.7832 14.6348 89.9492 14.8613 90.0625C15.0918 90.1719 15.3594 90.2266 15.6641 90.2266C15.9219 90.2266 16.1504 90.1816 16.3496 90.0918C16.5488 90.002 16.7168 89.873 16.8535 89.7051C16.9902 89.5371 17.0938 89.334 17.1641 89.0957C17.2383 88.8574 17.2754 88.5898 17.2754 88.293C17.2754 88.0234 17.2383 87.7734 17.1641 87.543C17.0898 87.3125 16.9785 87.1113 16.8301 86.9395C16.6855 86.7676 16.5078 86.6348 16.2969 86.541C16.0859 86.4434 15.8438 86.3945 15.5703 86.3945C15.207 86.3945 14.9316 86.4434 14.7441 86.541C14.5605 86.6387 14.3711 86.7715 14.1758 86.9395ZM25.1504 86.4238V87.4434H19.3027V86.4238H25.1504ZM22.7715 83.9336V90.1445H21.6875V83.9336H22.7715Z" fill="#8794BA"/>
</svg>
