<svg width="462" height="305" viewBox="0 0 462 305" fill="none" xmlns="http://www.w3.org/2000/svg">
<rect y="45" width="66" height="52" fill="white"/>
<rect x="66" y="45" width="66" height="52" fill="white"/>
<path d="M99.1108 66.4219V75H98.0269V67.7754L95.8413 68.5723V67.5938L98.9409 66.4219H99.1108Z" fill="#172755"/>
<rect x="132" y="45" width="66" height="52" fill="white"/>
<path d="M167.138 74.1094V75H161.554V74.2207L164.349 71.1094C164.693 70.7266 164.958 70.4023 165.146 70.1367C165.337 69.8672 165.47 69.627 165.544 69.416C165.623 69.2012 165.662 68.9824 165.662 68.7598C165.662 68.4785 165.603 68.2246 165.486 67.998C165.373 67.7676 165.205 67.584 164.982 67.4473C164.759 67.3105 164.49 67.2422 164.173 67.2422C163.794 67.2422 163.478 67.3164 163.224 67.4648C162.974 67.6094 162.787 67.8125 162.662 68.0742C162.537 68.3359 162.474 68.6367 162.474 68.9766H161.39C161.39 68.4961 161.496 68.0566 161.707 67.6582C161.917 67.2598 162.23 66.9434 162.644 66.709C163.058 66.4707 163.568 66.3516 164.173 66.3516C164.712 66.3516 165.173 66.4473 165.556 66.6387C165.939 66.8262 166.232 67.0918 166.435 67.4355C166.642 67.7754 166.746 68.1738 166.746 68.6309C166.746 68.8809 166.703 69.1348 166.617 69.3926C166.535 69.6465 166.419 69.9004 166.271 70.1543C166.126 70.4082 165.957 70.6582 165.761 70.9043C165.57 71.1504 165.365 71.3926 165.146 71.6309L162.861 74.1094H167.138Z" fill="#172755"/>
<rect x="198" y="45" width="66" height="52" fill="white"/>
<path d="M229.13 70.2012H229.904C230.283 70.2012 230.595 70.1387 230.841 70.0137C231.091 69.8848 231.277 69.7109 231.398 69.4922C231.523 69.2695 231.585 69.0195 231.585 68.7422C231.585 68.4141 231.531 68.1387 231.421 67.916C231.312 67.6934 231.148 67.5254 230.929 67.4121C230.71 67.2988 230.433 67.2422 230.097 67.2422C229.792 67.2422 229.523 67.3027 229.289 67.4238C229.058 67.541 228.876 67.709 228.744 67.9277C228.615 68.1465 228.55 68.4043 228.55 68.7012H227.466C227.466 68.2676 227.576 67.873 227.794 67.5176C228.013 67.1621 228.32 66.8789 228.714 66.668C229.113 66.457 229.574 66.3516 230.097 66.3516C230.613 66.3516 231.064 66.4434 231.451 66.627C231.837 66.8066 232.138 67.0762 232.353 67.4355C232.568 67.791 232.675 68.2344 232.675 68.7656C232.675 68.9805 232.625 69.2109 232.523 69.457C232.425 69.6992 232.271 69.9258 232.06 70.1367C231.853 70.3477 231.583 70.5215 231.251 70.6582C230.919 70.791 230.521 70.8574 230.056 70.8574H229.13V70.2012ZM229.13 71.0918V70.4414H230.056C230.599 70.4414 231.048 70.5059 231.404 70.6348C231.759 70.7637 232.039 70.9355 232.242 71.1504C232.449 71.3652 232.593 71.6016 232.675 71.8594C232.761 72.1133 232.804 72.3672 232.804 72.6211C232.804 73.0195 232.736 73.373 232.599 73.6816C232.466 73.9902 232.277 74.252 232.031 74.4668C231.789 74.6816 231.503 74.8438 231.175 74.9531C230.847 75.0625 230.49 75.1172 230.103 75.1172C229.732 75.1172 229.382 75.0645 229.054 74.959C228.73 74.8535 228.443 74.7012 228.193 74.502C227.943 74.2988 227.748 74.0508 227.607 73.7578C227.466 73.4609 227.396 73.123 227.396 72.7441H228.48C228.48 73.041 228.544 73.3008 228.673 73.5234C228.806 73.7461 228.994 73.9199 229.236 74.0449C229.482 74.166 229.771 74.2266 230.103 74.2266C230.435 74.2266 230.72 74.1699 230.958 74.0566C231.201 73.9395 231.386 73.7637 231.515 73.5293C231.648 73.2949 231.714 73 231.714 72.6445C231.714 72.2891 231.64 71.998 231.492 71.7715C231.343 71.541 231.132 71.3711 230.859 71.2617C230.589 71.1484 230.271 71.0918 229.904 71.0918H229.13Z" fill="#172755"/>
<rect x="264" y="45" width="66" height="52" fill="white"/>
<path d="M299.314 72.1289V73.0195H293.15V72.3809L296.97 66.4688H297.855L296.906 68.1797L294.38 72.1289H299.314ZM298.125 66.4688V75H297.041V66.4688H298.125Z" fill="#172755"/>
<rect x="330" y="45" width="66" height="52" fill="white"/>
<path d="M360.919 70.9395L360.052 70.7168L360.48 66.4688H364.857V67.4707H361.4L361.142 69.791C361.298 69.7012 361.496 69.6172 361.734 69.5391C361.976 69.4609 362.253 69.4219 362.566 69.4219C362.96 69.4219 363.314 69.4902 363.626 69.627C363.939 69.7598 364.205 69.9512 364.423 70.2012C364.646 70.4512 364.816 70.752 364.933 71.1035C365.05 71.4551 365.109 71.8477 365.109 72.2812C365.109 72.6914 365.052 73.0684 364.939 73.4121C364.83 73.7559 364.664 74.0566 364.441 74.3145C364.218 74.5684 363.937 74.7656 363.597 74.9062C363.261 75.0469 362.865 75.1172 362.408 75.1172C362.064 75.1172 361.738 75.0703 361.429 74.9766C361.125 74.8789 360.851 74.7324 360.609 74.5371C360.371 74.3379 360.175 74.0918 360.023 73.7988C359.875 73.502 359.781 73.1543 359.742 72.7559H360.773C360.82 73.0762 360.914 73.3457 361.054 73.5645C361.195 73.7832 361.378 73.9492 361.605 74.0625C361.835 74.1719 362.103 74.2266 362.408 74.2266C362.666 74.2266 362.894 74.1816 363.093 74.0918C363.292 74.002 363.46 73.873 363.597 73.7051C363.734 73.5371 363.837 73.334 363.908 73.0957C363.982 72.8574 364.019 72.5898 364.019 72.293C364.019 72.0234 363.982 71.7734 363.908 71.543C363.833 71.3125 363.722 71.1113 363.574 70.9395C363.429 70.7676 363.251 70.6348 363.041 70.541C362.83 70.4434 362.587 70.3945 362.314 70.3945C361.951 70.3945 361.675 70.4434 361.488 70.541C361.304 70.6387 361.115 70.7715 360.919 70.9395Z" fill="#172755"/>
<rect x="396" y="45" width="66" height="52" fill="white"/>
<path d="M429.708 66.457H429.802V67.377H429.708C429.134 67.377 428.654 67.4707 428.267 67.6582C427.88 67.8418 427.574 68.0898 427.347 68.4023C427.121 68.7109 426.957 69.0586 426.855 69.4453C426.757 69.832 426.708 70.2246 426.708 70.623V71.877C426.708 72.2559 426.753 72.5918 426.843 72.8848C426.933 73.1738 427.056 73.418 427.212 73.6172C427.369 73.8164 427.544 73.9668 427.74 74.0684C427.939 74.1699 428.146 74.2207 428.361 74.2207C428.611 74.2207 428.833 74.1738 429.029 74.0801C429.224 73.9824 429.388 73.8477 429.521 73.6758C429.658 73.5 429.761 73.293 429.832 73.0547C429.902 72.8164 429.937 72.5547 429.937 72.2695C429.937 72.0156 429.906 71.7715 429.843 71.5371C429.781 71.2988 429.685 71.0879 429.556 70.9043C429.427 70.7168 429.265 70.5703 429.07 70.4648C428.878 70.3555 428.65 70.3008 428.384 70.3008C428.083 70.3008 427.802 70.375 427.541 70.5234C427.283 70.668 427.07 70.8594 426.902 71.0977C426.738 71.332 426.644 71.5879 426.621 71.8652L426.046 71.8594C426.101 71.4219 426.203 71.0488 426.351 70.7402C426.503 70.4277 426.691 70.1738 426.914 69.9785C427.14 69.7793 427.392 69.6348 427.669 69.5449C427.951 69.4512 428.248 69.4043 428.56 69.4043C428.986 69.4043 429.353 69.4844 429.662 69.6445C429.97 69.8047 430.224 70.0195 430.423 70.2891C430.623 70.5547 430.769 70.8555 430.863 71.1914C430.96 71.5234 431.009 71.8652 431.009 72.2168C431.009 72.6191 430.953 72.9961 430.839 73.3477C430.726 73.6992 430.556 74.0078 430.33 74.2734C430.107 74.5391 429.832 74.7461 429.503 74.8945C429.175 75.043 428.794 75.1172 428.361 75.1172C427.9 75.1172 427.498 75.0234 427.154 74.8359C426.81 74.6445 426.525 74.3906 426.298 74.0742C426.072 73.7578 425.902 73.4062 425.789 73.0195C425.675 72.6328 425.619 72.2402 425.619 71.8418V71.332C425.619 70.7305 425.679 70.1406 425.8 69.5625C425.921 68.9844 426.13 68.4609 426.427 67.9922C426.728 67.5234 427.144 67.1504 427.675 66.873C428.207 66.5957 428.884 66.457 429.708 66.457Z" fill="#172755"/>
<rect y="97" width="66" height="52" fill="white"/>
<path d="M35.062 118.469V119.078L31.5288 127H30.3862L33.9136 119.359H29.2964V118.469H35.062Z" fill="#172755"/>
<rect x="66" y="97" width="66" height="52" fill="white"/>
<circle cx="98.5" cy="122.5" r="19.5" fill="#0088F0"/>
<path d="M100.927 124.691C100.927 125.211 100.806 125.652 100.564 126.016C100.326 126.375 100.001 126.648 99.5913 126.836C99.1851 127.023 98.7261 127.117 98.2144 127.117C97.7026 127.117 97.2417 127.023 96.8315 126.836C96.4214 126.648 96.0972 126.375 95.8589 126.016C95.6206 125.652 95.5015 125.211 95.5015 124.691C95.5015 124.352 95.5659 124.041 95.6948 123.76C95.8276 123.475 96.0132 123.227 96.2515 123.016C96.4937 122.805 96.7788 122.643 97.1069 122.529C97.439 122.412 97.8042 122.354 98.2026 122.354C98.7261 122.354 99.1929 122.455 99.603 122.658C100.013 122.857 100.335 123.133 100.57 123.484C100.808 123.836 100.927 124.238 100.927 124.691ZM99.8374 124.668C99.8374 124.352 99.769 124.072 99.6323 123.83C99.4956 123.584 99.3042 123.393 99.0581 123.256C98.812 123.119 98.5269 123.051 98.2026 123.051C97.8706 123.051 97.5835 123.119 97.3413 123.256C97.103 123.393 96.9175 123.584 96.7847 123.83C96.6519 124.072 96.5854 124.352 96.5854 124.668C96.5854 124.996 96.6499 125.277 96.7788 125.512C96.9116 125.742 97.0991 125.92 97.3413 126.045C97.5874 126.166 97.8784 126.227 98.2144 126.227C98.5503 126.227 98.8394 126.166 99.0815 126.045C99.3237 125.92 99.5093 125.742 99.6382 125.512C99.771 125.277 99.8374 124.996 99.8374 124.668ZM100.728 120.689C100.728 121.104 100.619 121.477 100.4 121.809C100.181 122.141 99.8823 122.402 99.5034 122.594C99.1245 122.785 98.6948 122.881 98.2144 122.881C97.7261 122.881 97.2905 122.785 96.9077 122.594C96.5288 122.402 96.2319 122.141 96.0171 121.809C95.8022 121.477 95.6948 121.104 95.6948 120.689C95.6948 120.193 95.8022 119.771 96.0171 119.424C96.2358 119.076 96.5347 118.811 96.9136 118.627C97.2925 118.443 97.7241 118.352 98.2085 118.352C98.6968 118.352 99.1304 118.443 99.5093 118.627C99.8882 118.811 100.185 119.076 100.4 119.424C100.619 119.771 100.728 120.193 100.728 120.689ZM99.644 120.707C99.644 120.422 99.5835 120.17 99.4624 119.951C99.3413 119.732 99.1733 119.561 98.9585 119.436C98.7437 119.307 98.4937 119.242 98.2085 119.242C97.9233 119.242 97.6733 119.303 97.4585 119.424C97.2476 119.541 97.0815 119.709 96.9604 119.928C96.8433 120.146 96.7847 120.406 96.7847 120.707C96.7847 121 96.8433 121.256 96.9604 121.475C97.0815 121.693 97.2495 121.863 97.4644 121.984C97.6792 122.105 97.9292 122.166 98.2144 122.166C98.4995 122.166 98.7476 122.105 98.9585 121.984C99.1733 121.863 99.3413 121.693 99.4624 121.475C99.5835 121.256 99.644 121 99.644 120.707Z" fill="#EEEEF7"/>
<rect x="132" y="97" width="66" height="52" fill="white"/>
<circle cx="164.5" cy="122.5" r="19.5" fill="#0088F0"/>
<path d="M162.626 126.092H162.738C163.363 126.092 163.871 126.004 164.261 125.828C164.652 125.652 164.953 125.416 165.164 125.119C165.375 124.822 165.519 124.488 165.597 124.117C165.675 123.742 165.714 123.357 165.714 122.963V121.656C165.714 121.27 165.669 120.926 165.58 120.625C165.494 120.324 165.373 120.072 165.216 119.869C165.064 119.666 164.89 119.512 164.695 119.406C164.5 119.301 164.292 119.248 164.074 119.248C163.824 119.248 163.599 119.299 163.4 119.4C163.205 119.498 163.039 119.637 162.902 119.816C162.769 119.996 162.667 120.207 162.597 120.449C162.527 120.691 162.492 120.955 162.492 121.24C162.492 121.494 162.523 121.74 162.585 121.979C162.648 122.217 162.744 122.432 162.873 122.623C163.001 122.814 163.162 122.967 163.353 123.08C163.548 123.189 163.777 123.244 164.039 123.244C164.281 123.244 164.507 123.197 164.718 123.104C164.933 123.006 165.123 122.875 165.287 122.711C165.455 122.543 165.587 122.354 165.685 122.143C165.787 121.932 165.845 121.711 165.861 121.48H166.376C166.376 121.805 166.312 122.125 166.183 122.441C166.058 122.754 165.882 123.039 165.656 123.297C165.429 123.555 165.164 123.762 164.859 123.918C164.554 124.07 164.222 124.146 163.863 124.146C163.441 124.146 163.076 124.064 162.767 123.9C162.458 123.736 162.205 123.518 162.005 123.244C161.81 122.971 161.664 122.666 161.566 122.33C161.472 121.99 161.425 121.646 161.425 121.299C161.425 120.893 161.482 120.512 161.595 120.156C161.708 119.801 161.876 119.488 162.099 119.219C162.322 118.945 162.597 118.732 162.925 118.58C163.257 118.428 163.64 118.352 164.074 118.352C164.562 118.352 164.978 118.449 165.322 118.645C165.666 118.84 165.945 119.102 166.16 119.43C166.378 119.758 166.539 120.127 166.64 120.537C166.742 120.947 166.792 121.369 166.792 121.803V122.195C166.792 122.637 166.763 123.086 166.705 123.543C166.65 123.996 166.542 124.43 166.382 124.844C166.226 125.258 165.998 125.629 165.697 125.957C165.396 126.281 165.003 126.539 164.519 126.73C164.039 126.918 163.445 127.012 162.738 127.012H162.626V126.092Z" fill="#EEEEF7"/>
<rect x="198" y="97" width="66" height="52" fill="white"/>
<circle cx="230.5" cy="122.5" r="19.5" fill="#0088F0"/>
<path d="M227.236 118.422V127H226.152V119.775L223.966 120.572V119.594L227.066 118.422H227.236ZM235.779 122.055V123.355C235.779 124.055 235.716 124.645 235.591 125.125C235.466 125.605 235.287 125.992 235.052 126.285C234.818 126.578 234.535 126.791 234.203 126.924C233.875 127.053 233.503 127.117 233.089 127.117C232.761 127.117 232.458 127.076 232.181 126.994C231.904 126.912 231.654 126.781 231.431 126.602C231.212 126.418 231.025 126.18 230.869 125.887C230.712 125.594 230.593 125.238 230.511 124.82C230.429 124.402 230.388 123.914 230.388 123.355V122.055C230.388 121.355 230.451 120.77 230.576 120.297C230.705 119.824 230.886 119.445 231.121 119.16C231.355 118.871 231.636 118.664 231.964 118.539C232.296 118.414 232.667 118.352 233.078 118.352C233.41 118.352 233.714 118.393 233.992 118.475C234.273 118.553 234.523 118.68 234.742 118.855C234.96 119.027 235.146 119.258 235.298 119.547C235.455 119.832 235.574 120.182 235.656 120.596C235.738 121.01 235.779 121.496 235.779 122.055ZM234.689 123.531V121.873C234.689 121.49 234.666 121.154 234.619 120.865C234.576 120.572 234.511 120.322 234.425 120.115C234.339 119.908 234.23 119.74 234.097 119.611C233.968 119.482 233.818 119.389 233.646 119.33C233.478 119.268 233.289 119.236 233.078 119.236C232.82 119.236 232.591 119.285 232.392 119.383C232.193 119.477 232.025 119.627 231.888 119.834C231.755 120.041 231.654 120.312 231.583 120.648C231.513 120.984 231.478 121.393 231.478 121.873V123.531C231.478 123.914 231.5 124.252 231.542 124.545C231.589 124.838 231.658 125.092 231.748 125.307C231.837 125.518 231.947 125.691 232.076 125.828C232.205 125.965 232.353 126.066 232.521 126.133C232.693 126.195 232.882 126.227 233.089 126.227C233.355 126.227 233.587 126.176 233.787 126.074C233.986 125.973 234.152 125.814 234.285 125.6C234.421 125.381 234.523 125.102 234.589 124.762C234.656 124.418 234.689 124.008 234.689 123.531Z" fill="#EEEEF7"/>
<rect x="264" y="97" width="66" height="52" fill="white"/>
<path d="M293.236 118.422V127H292.152V119.775L289.966 120.572V119.594L293.066 118.422H293.236ZM299.986 118.422V127H298.902V119.775L296.716 120.572V119.594L299.816 118.422H299.986Z" fill="#172755"/>
<rect x="330" y="97" width="66" height="52" fill="white"/>
<path d="M359.236 118.422V127H358.152V119.775L355.966 120.572V119.594L359.066 118.422H359.236ZM368.013 126.109V127H362.429V126.221L365.224 123.109C365.568 122.727 365.833 122.402 366.021 122.137C366.212 121.867 366.345 121.627 366.419 121.416C366.498 121.201 366.537 120.982 366.537 120.76C366.537 120.479 366.478 120.225 366.361 119.998C366.248 119.768 366.08 119.584 365.857 119.447C365.634 119.311 365.365 119.242 365.048 119.242C364.669 119.242 364.353 119.316 364.099 119.465C363.849 119.609 363.662 119.812 363.537 120.074C363.412 120.336 363.349 120.637 363.349 120.977H362.265C362.265 120.496 362.371 120.057 362.582 119.658C362.792 119.26 363.105 118.943 363.519 118.709C363.933 118.471 364.443 118.352 365.048 118.352C365.587 118.352 366.048 118.447 366.431 118.639C366.814 118.826 367.107 119.092 367.31 119.436C367.517 119.775 367.621 120.174 367.621 120.631C367.621 120.881 367.578 121.135 367.492 121.393C367.41 121.646 367.294 121.9 367.146 122.154C367.001 122.408 366.832 122.658 366.636 122.904C366.445 123.15 366.24 123.393 366.021 123.631L363.736 126.109H368.013Z" fill="#172755"/>
<rect x="396" y="97" width="66" height="52" fill="white"/>
<path d="M425.236 118.422V127H424.152V119.775L421.966 120.572V119.594L425.066 118.422H425.236ZM430.005 122.201H430.779C431.158 122.201 431.47 122.139 431.716 122.014C431.966 121.885 432.152 121.711 432.273 121.492C432.398 121.27 432.46 121.02 432.46 120.742C432.46 120.414 432.406 120.139 432.296 119.916C432.187 119.693 432.023 119.525 431.804 119.412C431.585 119.299 431.308 119.242 430.972 119.242C430.667 119.242 430.398 119.303 430.164 119.424C429.933 119.541 429.751 119.709 429.619 119.928C429.49 120.146 429.425 120.404 429.425 120.701H428.341C428.341 120.268 428.451 119.873 428.669 119.518C428.888 119.162 429.195 118.879 429.589 118.668C429.988 118.457 430.449 118.352 430.972 118.352C431.488 118.352 431.939 118.443 432.326 118.627C432.712 118.807 433.013 119.076 433.228 119.436C433.443 119.791 433.55 120.234 433.55 120.766C433.55 120.98 433.5 121.211 433.398 121.457C433.3 121.699 433.146 121.926 432.935 122.137C432.728 122.348 432.458 122.521 432.126 122.658C431.794 122.791 431.396 122.857 430.931 122.857H430.005V122.201ZM430.005 123.092V122.441H430.931C431.474 122.441 431.923 122.506 432.279 122.635C432.634 122.764 432.914 122.936 433.117 123.15C433.324 123.365 433.468 123.602 433.55 123.859C433.636 124.113 433.679 124.367 433.679 124.621C433.679 125.02 433.611 125.373 433.474 125.682C433.341 125.99 433.152 126.252 432.906 126.467C432.664 126.682 432.378 126.844 432.05 126.953C431.722 127.062 431.365 127.117 430.978 127.117C430.607 127.117 430.257 127.064 429.929 126.959C429.605 126.854 429.318 126.701 429.068 126.502C428.818 126.299 428.623 126.051 428.482 125.758C428.341 125.461 428.271 125.123 428.271 124.744H429.355C429.355 125.041 429.419 125.301 429.548 125.523C429.681 125.746 429.869 125.92 430.111 126.045C430.357 126.166 430.646 126.227 430.978 126.227C431.31 126.227 431.595 126.17 431.833 126.057C432.076 125.939 432.261 125.764 432.39 125.529C432.523 125.295 432.589 125 432.589 124.645C432.589 124.289 432.515 123.998 432.367 123.771C432.218 123.541 432.007 123.371 431.734 123.262C431.464 123.148 431.146 123.092 430.779 123.092H430.005Z" fill="#172755"/>
<rect y="149" width="66" height="52" fill="white"/>
<path d="M29.2358 170.422V179H28.1519V171.775L25.9663 172.572V171.594L29.0659 170.422H29.2358ZM38.189 176.129V177.02H32.0249V176.381L35.8452 170.469H36.73L35.7808 172.18L33.2554 176.129H38.189ZM36.9995 170.469V179H35.9155V170.469H36.9995Z" fill="#172755"/>
<rect x="66" y="149" width="66" height="52" fill="white"/>
<path d="M95.2358 170.422V179H94.1519V171.775L91.9663 172.572V171.594L95.0659 170.422H95.2358ZM99.7944 174.939L98.9272 174.717L99.355 170.469H103.732V171.471H100.275L100.017 173.791C100.173 173.701 100.371 173.617 100.609 173.539C100.851 173.461 101.128 173.422 101.441 173.422C101.835 173.422 102.189 173.49 102.501 173.627C102.814 173.76 103.08 173.951 103.298 174.201C103.521 174.451 103.691 174.752 103.808 175.104C103.925 175.455 103.984 175.848 103.984 176.281C103.984 176.691 103.927 177.068 103.814 177.412C103.705 177.756 103.539 178.057 103.316 178.314C103.093 178.568 102.812 178.766 102.472 178.906C102.136 179.047 101.74 179.117 101.283 179.117C100.939 179.117 100.613 179.07 100.304 178.977C99.9995 178.879 99.7261 178.732 99.4839 178.537C99.2456 178.338 99.0503 178.092 98.8979 177.799C98.7495 177.502 98.6558 177.154 98.6167 176.756H99.6479C99.6948 177.076 99.7886 177.346 99.9292 177.564C100.07 177.783 100.253 177.949 100.48 178.062C100.71 178.172 100.978 178.227 101.283 178.227C101.541 178.227 101.769 178.182 101.968 178.092C102.167 178.002 102.335 177.873 102.472 177.705C102.609 177.537 102.712 177.334 102.783 177.096C102.857 176.857 102.894 176.59 102.894 176.293C102.894 176.023 102.857 175.773 102.783 175.543C102.708 175.312 102.597 175.111 102.449 174.939C102.304 174.768 102.126 174.635 101.916 174.541C101.705 174.443 101.462 174.395 101.189 174.395C100.826 174.395 100.55 174.443 100.363 174.541C100.179 174.639 99.9897 174.771 99.7944 174.939Z" fill="#172755"/>
<rect x="132" y="149" width="66" height="52" fill="white"/>
<path d="M161.236 170.422V179H160.152V171.775L157.966 172.572V171.594L161.066 170.422H161.236ZM168.583 170.457H168.677V171.377H168.583C168.009 171.377 167.529 171.471 167.142 171.658C166.755 171.842 166.449 172.09 166.222 172.402C165.996 172.711 165.832 173.059 165.73 173.445C165.632 173.832 165.583 174.225 165.583 174.623V175.877C165.583 176.256 165.628 176.592 165.718 176.885C165.808 177.174 165.931 177.418 166.087 177.617C166.244 177.816 166.419 177.967 166.615 178.068C166.814 178.17 167.021 178.221 167.236 178.221C167.486 178.221 167.708 178.174 167.904 178.08C168.099 177.982 168.263 177.848 168.396 177.676C168.533 177.5 168.636 177.293 168.707 177.055C168.777 176.816 168.812 176.555 168.812 176.27C168.812 176.016 168.781 175.771 168.718 175.537C168.656 175.299 168.56 175.088 168.431 174.904C168.302 174.717 168.14 174.57 167.945 174.465C167.753 174.355 167.525 174.301 167.259 174.301C166.958 174.301 166.677 174.375 166.416 174.523C166.158 174.668 165.945 174.859 165.777 175.098C165.613 175.332 165.519 175.588 165.496 175.865L164.921 175.859C164.976 175.422 165.078 175.049 165.226 174.74C165.378 174.428 165.566 174.174 165.789 173.979C166.015 173.779 166.267 173.635 166.544 173.545C166.826 173.451 167.123 173.404 167.435 173.404C167.861 173.404 168.228 173.484 168.537 173.645C168.845 173.805 169.099 174.02 169.298 174.289C169.498 174.555 169.644 174.855 169.738 175.191C169.835 175.523 169.884 175.865 169.884 176.217C169.884 176.619 169.828 176.996 169.714 177.348C169.601 177.699 169.431 178.008 169.205 178.273C168.982 178.539 168.707 178.746 168.378 178.895C168.05 179.043 167.669 179.117 167.236 179.117C166.775 179.117 166.373 179.023 166.029 178.836C165.685 178.645 165.4 178.391 165.173 178.074C164.947 177.758 164.777 177.406 164.664 177.02C164.55 176.633 164.494 176.24 164.494 175.842V175.332C164.494 174.73 164.554 174.141 164.675 173.562C164.796 172.984 165.005 172.461 165.302 171.992C165.603 171.523 166.019 171.15 166.55 170.873C167.082 170.596 167.759 170.457 168.583 170.457Z" fill="#172755"/>
<rect x="198" y="149" width="66" height="52" fill="white"/>
<path d="M227.236 170.422V179H226.152V171.775L223.966 172.572V171.594L227.066 170.422H227.236ZM235.937 170.469V171.078L232.404 179H231.261L234.789 171.359H230.171V170.469H235.937Z" fill="#172755"/>
<rect x="264" y="149" width="66" height="52" fill="white"/>
<circle cx="296.5" cy="174.5" r="19.5" fill="#EF2A82"/>
<path d="M293.236 170.422V179H292.152V171.775L289.966 172.572V171.594L293.066 170.422H293.236ZM301.802 176.691C301.802 177.211 301.681 177.652 301.439 178.016C301.201 178.375 300.876 178.648 300.466 178.836C300.06 179.023 299.601 179.117 299.089 179.117C298.578 179.117 298.117 179.023 297.707 178.836C297.296 178.648 296.972 178.375 296.734 178.016C296.496 177.652 296.376 177.211 296.376 176.691C296.376 176.352 296.441 176.041 296.57 175.76C296.703 175.475 296.888 175.227 297.126 175.016C297.369 174.805 297.654 174.643 297.982 174.529C298.314 174.412 298.679 174.354 299.078 174.354C299.601 174.354 300.068 174.455 300.478 174.658C300.888 174.857 301.21 175.133 301.445 175.484C301.683 175.836 301.802 176.238 301.802 176.691ZM300.712 176.668C300.712 176.352 300.644 176.072 300.507 175.83C300.371 175.584 300.179 175.393 299.933 175.256C299.687 175.119 299.402 175.051 299.078 175.051C298.746 175.051 298.458 175.119 298.216 175.256C297.978 175.393 297.792 175.584 297.66 175.83C297.527 176.072 297.46 176.352 297.46 176.668C297.46 176.996 297.525 177.277 297.654 177.512C297.787 177.742 297.974 177.92 298.216 178.045C298.462 178.166 298.753 178.227 299.089 178.227C299.425 178.227 299.714 178.166 299.957 178.045C300.199 177.92 300.384 177.742 300.513 177.512C300.646 177.277 300.712 176.996 300.712 176.668ZM301.603 172.689C301.603 173.104 301.494 173.477 301.275 173.809C301.056 174.141 300.757 174.402 300.378 174.594C300 174.785 299.57 174.881 299.089 174.881C298.601 174.881 298.166 174.785 297.783 174.594C297.404 174.402 297.107 174.141 296.892 173.809C296.677 173.477 296.57 173.104 296.57 172.689C296.57 172.193 296.677 171.771 296.892 171.424C297.111 171.076 297.41 170.811 297.789 170.627C298.167 170.443 298.599 170.352 299.083 170.352C299.572 170.352 300.005 170.443 300.384 170.627C300.763 170.811 301.06 171.076 301.275 171.424C301.494 171.771 301.603 172.193 301.603 172.689ZM300.519 172.707C300.519 172.422 300.458 172.17 300.337 171.951C300.216 171.732 300.048 171.561 299.833 171.436C299.619 171.307 299.369 171.242 299.083 171.242C298.798 171.242 298.548 171.303 298.333 171.424C298.123 171.541 297.957 171.709 297.835 171.928C297.718 172.146 297.66 172.406 297.66 172.707C297.66 173 297.718 173.256 297.835 173.475C297.957 173.693 298.125 173.863 298.339 173.984C298.554 174.105 298.804 174.166 299.089 174.166C299.375 174.166 299.623 174.105 299.833 173.984C300.048 173.863 300.216 173.693 300.337 173.475C300.458 173.256 300.519 173 300.519 172.707Z" fill="#EEEEF7"/>
<rect x="330" y="149" width="66" height="52" fill="white"/>
<path d="M359.236 170.422V179H358.152V171.775L355.966 172.572V171.594L359.066 170.422H359.236ZM363.501 178.092H363.613C364.238 178.092 364.746 178.004 365.136 177.828C365.527 177.652 365.828 177.416 366.039 177.119C366.25 176.822 366.394 176.488 366.472 176.117C366.55 175.742 366.589 175.357 366.589 174.963V173.656C366.589 173.27 366.544 172.926 366.455 172.625C366.369 172.324 366.248 172.072 366.091 171.869C365.939 171.666 365.765 171.512 365.57 171.406C365.375 171.301 365.167 171.248 364.949 171.248C364.699 171.248 364.474 171.299 364.275 171.4C364.08 171.498 363.914 171.637 363.777 171.816C363.644 171.996 363.542 172.207 363.472 172.449C363.402 172.691 363.367 172.955 363.367 173.24C363.367 173.494 363.398 173.74 363.46 173.979C363.523 174.217 363.619 174.432 363.748 174.623C363.876 174.814 364.037 174.967 364.228 175.08C364.423 175.189 364.652 175.244 364.914 175.244C365.156 175.244 365.382 175.197 365.593 175.104C365.808 175.006 365.998 174.875 366.162 174.711C366.33 174.543 366.462 174.354 366.56 174.143C366.662 173.932 366.72 173.711 366.736 173.48H367.251C367.251 173.805 367.187 174.125 367.058 174.441C366.933 174.754 366.757 175.039 366.531 175.297C366.304 175.555 366.039 175.762 365.734 175.918C365.429 176.07 365.097 176.146 364.738 176.146C364.316 176.146 363.951 176.064 363.642 175.9C363.333 175.736 363.08 175.518 362.88 175.244C362.685 174.971 362.539 174.666 362.441 174.33C362.347 173.99 362.3 173.646 362.3 173.299C362.3 172.893 362.357 172.512 362.47 172.156C362.583 171.801 362.751 171.488 362.974 171.219C363.197 170.945 363.472 170.732 363.8 170.58C364.132 170.428 364.515 170.352 364.949 170.352C365.437 170.352 365.853 170.449 366.197 170.645C366.541 170.84 366.82 171.102 367.035 171.43C367.253 171.758 367.414 172.127 367.515 172.537C367.617 172.947 367.667 173.369 367.667 173.803V174.195C367.667 174.637 367.638 175.086 367.58 175.543C367.525 175.996 367.417 176.43 367.257 176.844C367.101 177.258 366.873 177.629 366.572 177.957C366.271 178.281 365.878 178.539 365.394 178.73C364.914 178.918 364.32 179.012 363.613 179.012H363.501V178.092Z" fill="#172755"/>
<rect x="396" y="149" width="66" height="52" fill="white"/>
<path d="M427.263 178.109V179H421.679V178.221L424.474 175.109C424.818 174.727 425.083 174.402 425.271 174.137C425.462 173.867 425.595 173.627 425.669 173.416C425.748 173.201 425.787 172.982 425.787 172.76C425.787 172.479 425.728 172.225 425.611 171.998C425.498 171.768 425.33 171.584 425.107 171.447C424.884 171.311 424.615 171.242 424.298 171.242C423.919 171.242 423.603 171.316 423.349 171.465C423.099 171.609 422.912 171.812 422.787 172.074C422.662 172.336 422.599 172.637 422.599 172.977H421.515C421.515 172.496 421.621 172.057 421.832 171.658C422.042 171.26 422.355 170.943 422.769 170.709C423.183 170.471 423.693 170.352 424.298 170.352C424.837 170.352 425.298 170.447 425.681 170.639C426.064 170.826 426.357 171.092 426.56 171.436C426.767 171.775 426.871 172.174 426.871 172.631C426.871 172.881 426.828 173.135 426.742 173.393C426.66 173.646 426.544 173.9 426.396 174.154C426.251 174.408 426.082 174.658 425.886 174.904C425.695 175.15 425.49 175.393 425.271 175.631L422.986 178.109H427.263ZM433.779 174.055V175.355C433.779 176.055 433.716 176.645 433.591 177.125C433.466 177.605 433.287 177.992 433.052 178.285C432.818 178.578 432.535 178.791 432.203 178.924C431.875 179.053 431.503 179.117 431.089 179.117C430.761 179.117 430.458 179.076 430.181 178.994C429.904 178.912 429.654 178.781 429.431 178.602C429.212 178.418 429.025 178.18 428.869 177.887C428.712 177.594 428.593 177.238 428.511 176.82C428.429 176.402 428.388 175.914 428.388 175.355V174.055C428.388 173.355 428.451 172.77 428.576 172.297C428.705 171.824 428.886 171.445 429.121 171.16C429.355 170.871 429.636 170.664 429.964 170.539C430.296 170.414 430.667 170.352 431.078 170.352C431.41 170.352 431.714 170.393 431.992 170.475C432.273 170.553 432.523 170.68 432.742 170.855C432.96 171.027 433.146 171.258 433.298 171.547C433.455 171.832 433.574 172.182 433.656 172.596C433.738 173.01 433.779 173.496 433.779 174.055ZM432.689 175.531V173.873C432.689 173.49 432.666 173.154 432.619 172.865C432.576 172.572 432.511 172.322 432.425 172.115C432.339 171.908 432.23 171.74 432.097 171.611C431.968 171.482 431.818 171.389 431.646 171.33C431.478 171.268 431.289 171.236 431.078 171.236C430.82 171.236 430.591 171.285 430.392 171.383C430.193 171.477 430.025 171.627 429.888 171.834C429.755 172.041 429.654 172.312 429.583 172.648C429.513 172.984 429.478 173.393 429.478 173.873V175.531C429.478 175.914 429.5 176.252 429.542 176.545C429.589 176.838 429.658 177.092 429.748 177.307C429.837 177.518 429.947 177.691 430.076 177.828C430.205 177.965 430.353 178.066 430.521 178.133C430.693 178.195 430.882 178.227 431.089 178.227C431.355 178.227 431.587 178.176 431.787 178.074C431.986 177.973 432.152 177.814 432.285 177.6C432.421 177.381 432.523 177.102 432.589 176.762C432.656 176.418 432.689 176.008 432.689 175.531Z" fill="#172755"/>
<rect y="201" width="66" height="52" fill="white"/>
<path d="M31.2632 230.109V231H25.6792V230.221L28.4741 227.109C28.8179 226.727 29.0835 226.402 29.271 226.137C29.4624 225.867 29.5952 225.627 29.6694 225.416C29.7476 225.201 29.7866 224.982 29.7866 224.76C29.7866 224.479 29.728 224.225 29.6108 223.998C29.4976 223.768 29.3296 223.584 29.1069 223.447C28.8843 223.311 28.6147 223.242 28.2983 223.242C27.9194 223.242 27.603 223.316 27.3491 223.465C27.0991 223.609 26.9116 223.812 26.7866 224.074C26.6616 224.336 26.5991 224.637 26.5991 224.977H25.5151C25.5151 224.496 25.6206 224.057 25.8315 223.658C26.0425 223.26 26.355 222.943 26.769 222.709C27.1831 222.471 27.6929 222.352 28.2983 222.352C28.8374 222.352 29.2983 222.447 29.6812 222.639C30.064 222.826 30.3569 223.092 30.5601 223.436C30.7671 223.775 30.8706 224.174 30.8706 224.631C30.8706 224.881 30.8276 225.135 30.7417 225.393C30.6597 225.646 30.5444 225.9 30.396 226.154C30.2515 226.408 30.0815 226.658 29.8862 226.904C29.6948 227.15 29.4897 227.393 29.271 227.631L26.9858 230.109H31.2632ZM35.9858 222.422V231H34.9019V223.775L32.7163 224.572V223.594L35.8159 222.422H35.9858Z" fill="#172755"/>
<rect x="66" y="201" width="66" height="52" fill="white"/>
<path d="M97.2632 230.109V231H91.6792V230.221L94.4741 227.109C94.8179 226.727 95.0835 226.402 95.271 226.137C95.4624 225.867 95.5952 225.627 95.6694 225.416C95.7476 225.201 95.7866 224.982 95.7866 224.76C95.7866 224.479 95.728 224.225 95.6108 223.998C95.4976 223.768 95.3296 223.584 95.1069 223.447C94.8843 223.311 94.6147 223.242 94.2983 223.242C93.9194 223.242 93.603 223.316 93.3491 223.465C93.0991 223.609 92.9116 223.812 92.7866 224.074C92.6616 224.336 92.5991 224.637 92.5991 224.977H91.5151C91.5151 224.496 91.6206 224.057 91.8315 223.658C92.0425 223.26 92.355 222.943 92.769 222.709C93.1831 222.471 93.6929 222.352 94.2983 222.352C94.8374 222.352 95.2983 222.447 95.6812 222.639C96.064 222.826 96.3569 223.092 96.5601 223.436C96.7671 223.775 96.8706 224.174 96.8706 224.631C96.8706 224.881 96.8276 225.135 96.7417 225.393C96.6597 225.646 96.5444 225.9 96.396 226.154C96.2515 226.408 96.0815 226.658 95.8862 226.904C95.6948 227.15 95.4897 227.393 95.271 227.631L92.9858 230.109H97.2632ZM104.013 230.109V231H98.4292V230.221L101.224 227.109C101.568 226.727 101.833 226.402 102.021 226.137C102.212 225.867 102.345 225.627 102.419 225.416C102.498 225.201 102.537 224.982 102.537 224.76C102.537 224.479 102.478 224.225 102.361 223.998C102.248 223.768 102.08 223.584 101.857 223.447C101.634 223.311 101.365 223.242 101.048 223.242C100.669 223.242 100.353 223.316 100.099 223.465C99.8491 223.609 99.6616 223.812 99.5366 224.074C99.4116 224.336 99.3491 224.637 99.3491 224.977H98.2651C98.2651 224.496 98.3706 224.057 98.5815 223.658C98.7925 223.26 99.105 222.943 99.519 222.709C99.9331 222.471 100.443 222.352 101.048 222.352C101.587 222.352 102.048 222.447 102.431 222.639C102.814 222.826 103.107 223.092 103.31 223.436C103.517 223.775 103.621 224.174 103.621 224.631C103.621 224.881 103.578 225.135 103.492 225.393C103.41 225.646 103.294 225.9 103.146 226.154C103.001 226.408 102.832 226.658 102.636 226.904C102.445 227.15 102.24 227.393 102.021 227.631L99.7358 230.109H104.013Z" fill="#172755"/>
<rect x="132" y="201" width="66" height="52" fill="white"/>
<path d="M163.263 230.109V231H157.679V230.221L160.474 227.109C160.818 226.727 161.083 226.402 161.271 226.137C161.462 225.867 161.595 225.627 161.669 225.416C161.748 225.201 161.787 224.982 161.787 224.76C161.787 224.479 161.728 224.225 161.611 223.998C161.498 223.768 161.33 223.584 161.107 223.447C160.884 223.311 160.615 223.242 160.298 223.242C159.919 223.242 159.603 223.316 159.349 223.465C159.099 223.609 158.912 223.812 158.787 224.074C158.662 224.336 158.599 224.637 158.599 224.977H157.515C157.515 224.496 157.621 224.057 157.832 223.658C158.042 223.26 158.355 222.943 158.769 222.709C159.183 222.471 159.693 222.352 160.298 222.352C160.837 222.352 161.298 222.447 161.681 222.639C162.064 222.826 162.357 223.092 162.56 223.436C162.767 223.775 162.871 224.174 162.871 224.631C162.871 224.881 162.828 225.135 162.742 225.393C162.66 225.646 162.544 225.9 162.396 226.154C162.251 226.408 162.082 226.658 161.886 226.904C161.695 227.15 161.49 227.393 161.271 227.631L158.986 230.109H163.263ZM166.005 226.201H166.779C167.158 226.201 167.47 226.139 167.716 226.014C167.966 225.885 168.152 225.711 168.273 225.492C168.398 225.27 168.46 225.02 168.46 224.742C168.46 224.414 168.406 224.139 168.296 223.916C168.187 223.693 168.023 223.525 167.804 223.412C167.585 223.299 167.308 223.242 166.972 223.242C166.667 223.242 166.398 223.303 166.164 223.424C165.933 223.541 165.751 223.709 165.619 223.928C165.49 224.146 165.425 224.404 165.425 224.701H164.341C164.341 224.268 164.451 223.873 164.669 223.518C164.888 223.162 165.195 222.879 165.589 222.668C165.988 222.457 166.449 222.352 166.972 222.352C167.488 222.352 167.939 222.443 168.326 222.627C168.712 222.807 169.013 223.076 169.228 223.436C169.443 223.791 169.55 224.234 169.55 224.766C169.55 224.98 169.5 225.211 169.398 225.457C169.3 225.699 169.146 225.926 168.935 226.137C168.728 226.348 168.458 226.521 168.126 226.658C167.794 226.791 167.396 226.857 166.931 226.857H166.005V226.201ZM166.005 227.092V226.441H166.931C167.474 226.441 167.923 226.506 168.279 226.635C168.634 226.764 168.914 226.936 169.117 227.15C169.324 227.365 169.468 227.602 169.55 227.859C169.636 228.113 169.679 228.367 169.679 228.621C169.679 229.02 169.611 229.373 169.474 229.682C169.341 229.99 169.152 230.252 168.906 230.467C168.664 230.682 168.378 230.844 168.05 230.953C167.722 231.062 167.365 231.117 166.978 231.117C166.607 231.117 166.257 231.064 165.929 230.959C165.605 230.854 165.318 230.701 165.068 230.502C164.818 230.299 164.623 230.051 164.482 229.758C164.341 229.461 164.271 229.123 164.271 228.744H165.355C165.355 229.041 165.419 229.301 165.548 229.523C165.681 229.746 165.869 229.92 166.111 230.045C166.357 230.166 166.646 230.227 166.978 230.227C167.31 230.227 167.595 230.17 167.833 230.057C168.076 229.939 168.261 229.764 168.39 229.529C168.523 229.295 168.589 229 168.589 228.645C168.589 228.289 168.515 227.998 168.367 227.771C168.218 227.541 168.007 227.371 167.734 227.262C167.464 227.148 167.146 227.092 166.779 227.092H166.005Z" fill="#172755"/>
<rect x="198" y="201" width="66" height="52" fill="white"/>
<path d="M229.263 230.109V231H223.679V230.221L226.474 227.109C226.818 226.727 227.083 226.402 227.271 226.137C227.462 225.867 227.595 225.627 227.669 225.416C227.748 225.201 227.787 224.982 227.787 224.76C227.787 224.479 227.728 224.225 227.611 223.998C227.498 223.768 227.33 223.584 227.107 223.447C226.884 223.311 226.615 223.242 226.298 223.242C225.919 223.242 225.603 223.316 225.349 223.465C225.099 223.609 224.912 223.812 224.787 224.074C224.662 224.336 224.599 224.637 224.599 224.977H223.515C223.515 224.496 223.621 224.057 223.832 223.658C224.042 223.26 224.355 222.943 224.769 222.709C225.183 222.471 225.693 222.352 226.298 222.352C226.837 222.352 227.298 222.447 227.681 222.639C228.064 222.826 228.357 223.092 228.56 223.436C228.767 223.775 228.871 224.174 228.871 224.631C228.871 224.881 228.828 225.135 228.742 225.393C228.66 225.646 228.544 225.9 228.396 226.154C228.251 226.408 228.082 226.658 227.886 226.904C227.695 227.15 227.49 227.393 227.271 227.631L224.986 230.109H229.263ZM236.189 228.129V229.02H230.025V228.381L233.845 222.469H234.73L233.781 224.18L231.255 228.129H236.189ZM235 222.469V231H233.916V222.469H235Z" fill="#172755"/>
<rect x="264" y="201" width="66" height="52" fill="white"/>
<path d="M295.263 230.109V231H289.679V230.221L292.474 227.109C292.818 226.727 293.083 226.402 293.271 226.137C293.462 225.867 293.595 225.627 293.669 225.416C293.748 225.201 293.787 224.982 293.787 224.76C293.787 224.479 293.728 224.225 293.611 223.998C293.498 223.768 293.33 223.584 293.107 223.447C292.884 223.311 292.615 223.242 292.298 223.242C291.919 223.242 291.603 223.316 291.349 223.465C291.099 223.609 290.912 223.812 290.787 224.074C290.662 224.336 290.599 224.637 290.599 224.977H289.515C289.515 224.496 289.621 224.057 289.832 223.658C290.042 223.26 290.355 222.943 290.769 222.709C291.183 222.471 291.693 222.352 292.298 222.352C292.837 222.352 293.298 222.447 293.681 222.639C294.064 222.826 294.357 223.092 294.56 223.436C294.767 223.775 294.871 224.174 294.871 224.631C294.871 224.881 294.828 225.135 294.742 225.393C294.66 225.646 294.544 225.9 294.396 226.154C294.251 226.408 294.082 226.658 293.886 226.904C293.695 227.15 293.49 227.393 293.271 227.631L290.986 230.109H295.263ZM297.794 226.939L296.927 226.717L297.355 222.469H301.732V223.471H298.275L298.017 225.791C298.173 225.701 298.371 225.617 298.609 225.539C298.851 225.461 299.128 225.422 299.441 225.422C299.835 225.422 300.189 225.49 300.501 225.627C300.814 225.76 301.08 225.951 301.298 226.201C301.521 226.451 301.691 226.752 301.808 227.104C301.925 227.455 301.984 227.848 301.984 228.281C301.984 228.691 301.927 229.068 301.814 229.412C301.705 229.756 301.539 230.057 301.316 230.314C301.093 230.568 300.812 230.766 300.472 230.906C300.136 231.047 299.74 231.117 299.283 231.117C298.939 231.117 298.613 231.07 298.304 230.977C298 230.879 297.726 230.732 297.484 230.537C297.246 230.338 297.05 230.092 296.898 229.799C296.75 229.502 296.656 229.154 296.617 228.756H297.648C297.695 229.076 297.789 229.346 297.929 229.564C298.07 229.783 298.253 229.949 298.48 230.062C298.71 230.172 298.978 230.227 299.283 230.227C299.541 230.227 299.769 230.182 299.968 230.092C300.167 230.002 300.335 229.873 300.472 229.705C300.609 229.537 300.712 229.334 300.783 229.096C300.857 228.857 300.894 228.59 300.894 228.293C300.894 228.023 300.857 227.773 300.783 227.543C300.708 227.312 300.597 227.111 300.449 226.939C300.304 226.768 300.126 226.635 299.916 226.541C299.705 226.443 299.462 226.395 299.189 226.395C298.826 226.395 298.55 226.443 298.363 226.541C298.179 226.639 297.99 226.771 297.794 226.939Z" fill="#172755"/>
<rect x="330" y="201" width="66" height="52" fill="white"/>
<path d="M361.263 230.109V231H355.679V230.221L358.474 227.109C358.818 226.727 359.083 226.402 359.271 226.137C359.462 225.867 359.595 225.627 359.669 225.416C359.748 225.201 359.787 224.982 359.787 224.76C359.787 224.479 359.728 224.225 359.611 223.998C359.498 223.768 359.33 223.584 359.107 223.447C358.884 223.311 358.615 223.242 358.298 223.242C357.919 223.242 357.603 223.316 357.349 223.465C357.099 223.609 356.912 223.812 356.787 224.074C356.662 224.336 356.599 224.637 356.599 224.977H355.515C355.515 224.496 355.621 224.057 355.832 223.658C356.042 223.26 356.355 222.943 356.769 222.709C357.183 222.471 357.693 222.352 358.298 222.352C358.837 222.352 359.298 222.447 359.681 222.639C360.064 222.826 360.357 223.092 360.56 223.436C360.767 223.775 360.871 224.174 360.871 224.631C360.871 224.881 360.828 225.135 360.742 225.393C360.66 225.646 360.544 225.9 360.396 226.154C360.251 226.408 360.082 226.658 359.886 226.904C359.695 227.15 359.49 227.393 359.271 227.631L356.986 230.109H361.263ZM366.583 222.457H366.677V223.377H366.583C366.009 223.377 365.529 223.471 365.142 223.658C364.755 223.842 364.449 224.09 364.222 224.402C363.996 224.711 363.832 225.059 363.73 225.445C363.632 225.832 363.583 226.225 363.583 226.623V227.877C363.583 228.256 363.628 228.592 363.718 228.885C363.808 229.174 363.931 229.418 364.087 229.617C364.244 229.816 364.419 229.967 364.615 230.068C364.814 230.17 365.021 230.221 365.236 230.221C365.486 230.221 365.708 230.174 365.904 230.08C366.099 229.982 366.263 229.848 366.396 229.676C366.533 229.5 366.636 229.293 366.707 229.055C366.777 228.816 366.812 228.555 366.812 228.27C366.812 228.016 366.781 227.771 366.718 227.537C366.656 227.299 366.56 227.088 366.431 226.904C366.302 226.717 366.14 226.57 365.945 226.465C365.753 226.355 365.525 226.301 365.259 226.301C364.958 226.301 364.677 226.375 364.416 226.523C364.158 226.668 363.945 226.859 363.777 227.098C363.613 227.332 363.519 227.588 363.496 227.865L362.921 227.859C362.976 227.422 363.078 227.049 363.226 226.74C363.378 226.428 363.566 226.174 363.789 225.979C364.015 225.779 364.267 225.635 364.544 225.545C364.826 225.451 365.123 225.404 365.435 225.404C365.861 225.404 366.228 225.484 366.537 225.645C366.845 225.805 367.099 226.02 367.298 226.289C367.498 226.555 367.644 226.855 367.738 227.191C367.835 227.523 367.884 227.865 367.884 228.217C367.884 228.619 367.828 228.996 367.714 229.348C367.601 229.699 367.431 230.008 367.205 230.273C366.982 230.539 366.707 230.746 366.378 230.895C366.05 231.043 365.669 231.117 365.236 231.117C364.775 231.117 364.373 231.023 364.029 230.836C363.685 230.645 363.4 230.391 363.173 230.074C362.947 229.758 362.777 229.406 362.664 229.02C362.55 228.633 362.494 228.24 362.494 227.842V227.332C362.494 226.73 362.554 226.141 362.675 225.562C362.796 224.984 363.005 224.461 363.302 223.992C363.603 223.523 364.019 223.15 364.55 222.873C365.082 222.596 365.759 222.457 366.583 222.457Z" fill="#172755"/>
<rect x="396" y="201" width="66" height="52" fill="white"/>
<path d="M427.263 230.109V231H421.679V230.221L424.474 227.109C424.818 226.727 425.083 226.402 425.271 226.137C425.462 225.867 425.595 225.627 425.669 225.416C425.748 225.201 425.787 224.982 425.787 224.76C425.787 224.479 425.728 224.225 425.611 223.998C425.498 223.768 425.33 223.584 425.107 223.447C424.884 223.311 424.615 223.242 424.298 223.242C423.919 223.242 423.603 223.316 423.349 223.465C423.099 223.609 422.912 223.812 422.787 224.074C422.662 224.336 422.599 224.637 422.599 224.977H421.515C421.515 224.496 421.621 224.057 421.832 223.658C422.042 223.26 422.355 222.943 422.769 222.709C423.183 222.471 423.693 222.352 424.298 222.352C424.837 222.352 425.298 222.447 425.681 222.639C426.064 222.826 426.357 223.092 426.56 223.436C426.767 223.775 426.871 224.174 426.871 224.631C426.871 224.881 426.828 225.135 426.742 225.393C426.66 225.646 426.544 225.9 426.396 226.154C426.251 226.408 426.082 226.658 425.886 226.904C425.695 227.15 425.49 227.393 425.271 227.631L422.986 230.109H427.263ZM433.937 222.469V223.078L430.404 231H429.261L432.789 223.359H428.171V222.469H433.937Z" fill="#172755"/>
<rect y="253" width="66" height="52" fill="white"/>
<path d="M31.2632 282.109V283H25.6792V282.221L28.4741 279.109C28.8179 278.727 29.0835 278.402 29.271 278.137C29.4624 277.867 29.5952 277.627 29.6694 277.416C29.7476 277.201 29.7866 276.982 29.7866 276.76C29.7866 276.479 29.728 276.225 29.6108 275.998C29.4976 275.768 29.3296 275.584 29.1069 275.447C28.8843 275.311 28.6147 275.242 28.2983 275.242C27.9194 275.242 27.603 275.316 27.3491 275.465C27.0991 275.609 26.9116 275.812 26.7866 276.074C26.6616 276.336 26.5991 276.637 26.5991 276.977H25.5151C25.5151 276.496 25.6206 276.057 25.8315 275.658C26.0425 275.26 26.355 274.943 26.769 274.709C27.1831 274.471 27.6929 274.352 28.2983 274.352C28.8374 274.352 29.2983 274.447 29.6812 274.639C30.064 274.826 30.3569 275.092 30.5601 275.436C30.7671 275.775 30.8706 276.174 30.8706 276.631C30.8706 276.881 30.8276 277.135 30.7417 277.393C30.6597 277.646 30.5444 277.9 30.396 278.154C30.2515 278.408 30.0815 278.658 29.8862 278.904C29.6948 279.15 29.4897 279.393 29.271 279.631L26.9858 282.109H31.2632ZM37.8022 280.691C37.8022 281.211 37.6812 281.652 37.439 282.016C37.2007 282.375 36.8765 282.648 36.4663 282.836C36.0601 283.023 35.6011 283.117 35.0894 283.117C34.5776 283.117 34.1167 283.023 33.7065 282.836C33.2964 282.648 32.9722 282.375 32.7339 282.016C32.4956 281.652 32.3765 281.211 32.3765 280.691C32.3765 280.352 32.4409 280.041 32.5698 279.76C32.7026 279.475 32.8882 279.227 33.1265 279.016C33.3687 278.805 33.6538 278.643 33.9819 278.529C34.314 278.412 34.6792 278.354 35.0776 278.354C35.6011 278.354 36.0679 278.455 36.478 278.658C36.8882 278.857 37.2104 279.133 37.4448 279.484C37.6831 279.836 37.8022 280.238 37.8022 280.691ZM36.7124 280.668C36.7124 280.352 36.644 280.072 36.5073 279.83C36.3706 279.584 36.1792 279.393 35.9331 279.256C35.687 279.119 35.4019 279.051 35.0776 279.051C34.7456 279.051 34.4585 279.119 34.2163 279.256C33.978 279.393 33.7925 279.584 33.6597 279.83C33.5269 280.072 33.4604 280.352 33.4604 280.668C33.4604 280.996 33.5249 281.277 33.6538 281.512C33.7866 281.742 33.9741 281.92 34.2163 282.045C34.4624 282.166 34.7534 282.227 35.0894 282.227C35.4253 282.227 35.7144 282.166 35.9565 282.045C36.1987 281.92 36.3843 281.742 36.5132 281.512C36.646 281.277 36.7124 280.996 36.7124 280.668ZM37.603 276.689C37.603 277.104 37.4937 277.477 37.2749 277.809C37.0562 278.141 36.7573 278.402 36.3784 278.594C35.9995 278.785 35.5698 278.881 35.0894 278.881C34.6011 278.881 34.1655 278.785 33.7827 278.594C33.4038 278.402 33.1069 278.141 32.8921 277.809C32.6772 277.477 32.5698 277.104 32.5698 276.689C32.5698 276.193 32.6772 275.771 32.8921 275.424C33.1108 275.076 33.4097 274.811 33.7886 274.627C34.1675 274.443 34.5991 274.352 35.0835 274.352C35.5718 274.352 36.0054 274.443 36.3843 274.627C36.7632 274.811 37.0601 275.076 37.2749 275.424C37.4937 275.771 37.603 276.193 37.603 276.689ZM36.519 276.707C36.519 276.422 36.4585 276.17 36.3374 275.951C36.2163 275.732 36.0483 275.561 35.8335 275.436C35.6187 275.307 35.3687 275.242 35.0835 275.242C34.7983 275.242 34.5483 275.303 34.3335 275.424C34.1226 275.541 33.9565 275.709 33.8354 275.928C33.7183 276.146 33.6597 276.406 33.6597 276.707C33.6597 277 33.7183 277.256 33.8354 277.475C33.9565 277.693 34.1245 277.863 34.3394 277.984C34.5542 278.105 34.8042 278.166 35.0894 278.166C35.3745 278.166 35.6226 278.105 35.8335 277.984C36.0483 277.863 36.2163 277.693 36.3374 277.475C36.4585 277.256 36.519 277 36.519 276.707Z" fill="#172755"/>
<rect x="66" y="253" width="66" height="52" fill="white"/>
<path d="M97.2632 282.109V283H91.6792V282.221L94.4741 279.109C94.8179 278.727 95.0835 278.402 95.271 278.137C95.4624 277.867 95.5952 277.627 95.6694 277.416C95.7476 277.201 95.7866 276.982 95.7866 276.76C95.7866 276.479 95.728 276.225 95.6108 275.998C95.4976 275.768 95.3296 275.584 95.1069 275.447C94.8843 275.311 94.6147 275.242 94.2983 275.242C93.9194 275.242 93.603 275.316 93.3491 275.465C93.0991 275.609 92.9116 275.812 92.7866 276.074C92.6616 276.336 92.5991 276.637 92.5991 276.977H91.5151C91.5151 276.496 91.6206 276.057 91.8315 275.658C92.0425 275.26 92.355 274.943 92.769 274.709C93.1831 274.471 93.6929 274.352 94.2983 274.352C94.8374 274.352 95.2983 274.447 95.6812 274.639C96.064 274.826 96.3569 275.092 96.5601 275.436C96.7671 275.775 96.8706 276.174 96.8706 276.631C96.8706 276.881 96.8276 277.135 96.7417 277.393C96.6597 277.646 96.5444 277.9 96.396 278.154C96.2515 278.408 96.0815 278.658 95.8862 278.904C95.6948 279.15 95.4897 279.393 95.271 279.631L92.9858 282.109H97.2632ZM99.5015 282.092H99.6128C100.238 282.092 100.746 282.004 101.136 281.828C101.527 281.652 101.828 281.416 102.039 281.119C102.25 280.822 102.394 280.488 102.472 280.117C102.55 279.742 102.589 279.357 102.589 278.963V277.656C102.589 277.27 102.544 276.926 102.455 276.625C102.369 276.324 102.248 276.072 102.091 275.869C101.939 275.666 101.765 275.512 101.57 275.406C101.375 275.301 101.167 275.248 100.949 275.248C100.699 275.248 100.474 275.299 100.275 275.4C100.08 275.498 99.9136 275.637 99.7769 275.816C99.644 275.996 99.5425 276.207 99.4722 276.449C99.4019 276.691 99.3667 276.955 99.3667 277.24C99.3667 277.494 99.3979 277.74 99.4604 277.979C99.5229 278.217 99.6187 278.432 99.7476 278.623C99.8765 278.814 100.037 278.967 100.228 279.08C100.423 279.189 100.652 279.244 100.914 279.244C101.156 279.244 101.382 279.197 101.593 279.104C101.808 279.006 101.998 278.875 102.162 278.711C102.33 278.543 102.462 278.354 102.56 278.143C102.662 277.932 102.72 277.711 102.736 277.48H103.251C103.251 277.805 103.187 278.125 103.058 278.441C102.933 278.754 102.757 279.039 102.531 279.297C102.304 279.555 102.039 279.762 101.734 279.918C101.429 280.07 101.097 280.146 100.738 280.146C100.316 280.146 99.9507 280.064 99.6421 279.9C99.3335 279.736 99.0796 279.518 98.8804 279.244C98.6851 278.971 98.5386 278.666 98.4409 278.33C98.3472 277.99 98.3003 277.646 98.3003 277.299C98.3003 276.893 98.3569 276.512 98.4702 276.156C98.5835 275.801 98.7515 275.488 98.9741 275.219C99.1968 274.945 99.4722 274.732 99.8003 274.58C100.132 274.428 100.515 274.352 100.949 274.352C101.437 274.352 101.853 274.449 102.197 274.645C102.541 274.84 102.82 275.102 103.035 275.43C103.253 275.758 103.414 276.127 103.515 276.537C103.617 276.947 103.667 277.369 103.667 277.803V278.195C103.667 278.637 103.638 279.086 103.58 279.543C103.525 279.996 103.417 280.43 103.257 280.844C103.101 281.258 102.873 281.629 102.572 281.957C102.271 282.281 101.878 282.539 101.394 282.73C100.914 282.918 100.32 283.012 99.6128 283.012H99.5015V282.092Z" fill="#172755"/>
<rect x="132" y="253" width="66" height="52" fill="white"/>
<path d="M159.255 278.201H160.029C160.408 278.201 160.72 278.139 160.966 278.014C161.216 277.885 161.402 277.711 161.523 277.492C161.648 277.27 161.71 277.02 161.71 276.742C161.71 276.414 161.656 276.139 161.546 275.916C161.437 275.693 161.273 275.525 161.054 275.412C160.835 275.299 160.558 275.242 160.222 275.242C159.917 275.242 159.648 275.303 159.414 275.424C159.183 275.541 159.001 275.709 158.869 275.928C158.74 276.146 158.675 276.404 158.675 276.701H157.591C157.591 276.268 157.701 275.873 157.919 275.518C158.138 275.162 158.445 274.879 158.839 274.668C159.238 274.457 159.699 274.352 160.222 274.352C160.738 274.352 161.189 274.443 161.576 274.627C161.962 274.807 162.263 275.076 162.478 275.436C162.693 275.791 162.8 276.234 162.8 276.766C162.8 276.98 162.75 277.211 162.648 277.457C162.55 277.699 162.396 277.926 162.185 278.137C161.978 278.348 161.708 278.521 161.376 278.658C161.044 278.791 160.646 278.857 160.181 278.857H159.255V278.201ZM159.255 279.092V278.441H160.181C160.724 278.441 161.173 278.506 161.529 278.635C161.884 278.764 162.164 278.936 162.367 279.15C162.574 279.365 162.718 279.602 162.8 279.859C162.886 280.113 162.929 280.367 162.929 280.621C162.929 281.02 162.861 281.373 162.724 281.682C162.591 281.99 162.402 282.252 162.156 282.467C161.914 282.682 161.628 282.844 161.3 282.953C160.972 283.062 160.615 283.117 160.228 283.117C159.857 283.117 159.507 283.064 159.179 282.959C158.855 282.854 158.568 282.701 158.318 282.502C158.068 282.299 157.873 282.051 157.732 281.758C157.591 281.461 157.521 281.123 157.521 280.744H158.605C158.605 281.041 158.669 281.301 158.798 281.523C158.931 281.746 159.119 281.92 159.361 282.045C159.607 282.166 159.896 282.227 160.228 282.227C160.56 282.227 160.845 282.17 161.083 282.057C161.326 281.939 161.511 281.764 161.64 281.529C161.773 281.295 161.839 281 161.839 280.645C161.839 280.289 161.765 279.998 161.617 279.771C161.468 279.541 161.257 279.371 160.984 279.262C160.714 279.148 160.396 279.092 160.029 279.092H159.255ZM169.779 278.055V279.355C169.779 280.055 169.716 280.645 169.591 281.125C169.466 281.605 169.287 281.992 169.052 282.285C168.818 282.578 168.535 282.791 168.203 282.924C167.875 283.053 167.503 283.117 167.089 283.117C166.761 283.117 166.458 283.076 166.181 282.994C165.904 282.912 165.654 282.781 165.431 282.602C165.212 282.418 165.025 282.18 164.869 281.887C164.712 281.594 164.593 281.238 164.511 280.82C164.429 280.402 164.388 279.914 164.388 279.355V278.055C164.388 277.355 164.451 276.77 164.576 276.297C164.705 275.824 164.886 275.445 165.121 275.16C165.355 274.871 165.636 274.664 165.964 274.539C166.296 274.414 166.667 274.352 167.078 274.352C167.41 274.352 167.714 274.393 167.992 274.475C168.273 274.553 168.523 274.68 168.742 274.855C168.96 275.027 169.146 275.258 169.298 275.547C169.455 275.832 169.574 276.182 169.656 276.596C169.738 277.01 169.779 277.496 169.779 278.055ZM168.689 279.531V277.873C168.689 277.49 168.666 277.154 168.619 276.865C168.576 276.572 168.511 276.322 168.425 276.115C168.339 275.908 168.23 275.74 168.097 275.611C167.968 275.482 167.818 275.389 167.646 275.33C167.478 275.268 167.289 275.236 167.078 275.236C166.82 275.236 166.591 275.285 166.392 275.383C166.193 275.477 166.025 275.627 165.888 275.834C165.755 276.041 165.654 276.312 165.583 276.648C165.513 276.984 165.478 277.393 165.478 277.873V279.531C165.478 279.914 165.5 280.252 165.542 280.545C165.589 280.838 165.658 281.092 165.748 281.307C165.837 281.518 165.947 281.691 166.076 281.828C166.205 281.965 166.353 282.066 166.521 282.133C166.693 282.195 166.882 282.227 167.089 282.227C167.355 282.227 167.587 282.176 167.787 282.074C167.986 281.973 168.152 281.814 168.285 281.6C168.421 281.381 168.523 281.102 168.589 280.762C168.656 280.418 168.689 280.008 168.689 279.531Z" fill="#172755"/>
<rect x="198" y="253" width="66" height="52" fill="white"/>
<path d="M225.255 278.201H226.029C226.408 278.201 226.72 278.139 226.966 278.014C227.216 277.885 227.402 277.711 227.523 277.492C227.648 277.27 227.71 277.02 227.71 276.742C227.71 276.414 227.656 276.139 227.546 275.916C227.437 275.693 227.273 275.525 227.054 275.412C226.835 275.299 226.558 275.242 226.222 275.242C225.917 275.242 225.648 275.303 225.414 275.424C225.183 275.541 225.001 275.709 224.869 275.928C224.74 276.146 224.675 276.404 224.675 276.701H223.591C223.591 276.268 223.701 275.873 223.919 275.518C224.138 275.162 224.445 274.879 224.839 274.668C225.238 274.457 225.699 274.352 226.222 274.352C226.738 274.352 227.189 274.443 227.576 274.627C227.962 274.807 228.263 275.076 228.478 275.436C228.693 275.791 228.8 276.234 228.8 276.766C228.8 276.98 228.75 277.211 228.648 277.457C228.55 277.699 228.396 277.926 228.185 278.137C227.978 278.348 227.708 278.521 227.376 278.658C227.044 278.791 226.646 278.857 226.181 278.857H225.255V278.201ZM225.255 279.092V278.441H226.181C226.724 278.441 227.173 278.506 227.529 278.635C227.884 278.764 228.164 278.936 228.367 279.15C228.574 279.365 228.718 279.602 228.8 279.859C228.886 280.113 228.929 280.367 228.929 280.621C228.929 281.02 228.861 281.373 228.724 281.682C228.591 281.99 228.402 282.252 228.156 282.467C227.914 282.682 227.628 282.844 227.3 282.953C226.972 283.062 226.615 283.117 226.228 283.117C225.857 283.117 225.507 283.064 225.179 282.959C224.855 282.854 224.568 282.701 224.318 282.502C224.068 282.299 223.873 282.051 223.732 281.758C223.591 281.461 223.521 281.123 223.521 280.744H224.605C224.605 281.041 224.669 281.301 224.798 281.523C224.931 281.746 225.119 281.92 225.361 282.045C225.607 282.166 225.896 282.227 226.228 282.227C226.56 282.227 226.845 282.17 227.083 282.057C227.326 281.939 227.511 281.764 227.64 281.529C227.773 281.295 227.839 281 227.839 280.645C227.839 280.289 227.765 279.998 227.617 279.771C227.468 279.541 227.257 279.371 226.984 279.262C226.714 279.148 226.396 279.092 226.029 279.092H225.255ZM233.986 274.422V283H232.902V275.775L230.716 276.572V275.594L233.816 274.422H233.986Z" fill="#172755"/>
<rect x="264" y="253" width="66" height="52" fill="white"/>
<rect x="330" y="253" width="66" height="52" fill="white"/>
<rect x="396" y="253" width="66" height="52" fill="white"/>
<path d="M18.6953 4.46875H19.791L22.5859 11.4238L25.375 4.46875H26.4766L23.0078 13H22.1523L18.6953 4.46875ZM18.3379 4.46875H19.3047L19.4629 9.67188V13H18.3379V4.46875ZM25.8613 4.46875H26.8281V13H25.7031V9.67188L25.8613 4.46875ZM35.3828 8.46484V9.00391C35.3828 9.64453 35.3027 10.2188 35.1426 10.7266C34.9824 11.2344 34.752 11.666 34.4512 12.0215C34.1504 12.377 33.7891 12.6484 33.3672 12.8359C32.9492 13.0234 32.4805 13.1172 31.9609 13.1172C31.457 13.1172 30.9941 13.0234 30.5723 12.8359C30.1543 12.6484 29.791 12.377 29.4824 12.0215C29.1777 11.666 28.9414 11.2344 28.7734 10.7266C28.6055 10.2188 28.5215 9.64453 28.5215 9.00391V8.46484C28.5215 7.82422 28.6035 7.25195 28.7676 6.74805C28.9355 6.24023 29.1719 5.80859 29.4766 5.45312C29.7812 5.09375 30.1426 4.82031 30.5605 4.63281C30.9824 4.44531 31.4453 4.35156 31.9492 4.35156C32.4688 4.35156 32.9375 4.44531 33.3555 4.63281C33.7773 4.82031 34.1387 5.09375 34.4395 5.45312C34.7441 5.80859 34.9766 6.24023 35.1367 6.74805C35.3008 7.25195 35.3828 7.82422 35.3828 8.46484ZM34.2637 9.00391V8.45312C34.2637 7.94531 34.2109 7.49609 34.1055 7.10547C34.0039 6.71484 33.8535 6.38672 33.6543 6.12109C33.4551 5.85547 33.2109 5.6543 32.9219 5.51758C32.6367 5.38086 32.3125 5.3125 31.9492 5.3125C31.5977 5.3125 31.2793 5.38086 30.9941 5.51758C30.7129 5.6543 30.4707 5.85547 30.2676 6.12109C30.0684 6.38672 29.9141 6.71484 29.8047 7.10547C29.6953 7.49609 29.6406 7.94531 29.6406 8.45312V9.00391C29.6406 9.51562 29.6953 9.96875 29.8047 10.3633C29.9141 10.7539 30.0703 11.084 30.2734 11.3535C30.4805 11.6191 30.7246 11.8203 31.0059 11.957C31.291 12.0938 31.6094 12.1621 31.9609 12.1621C32.3281 12.1621 32.6543 12.0938 32.9395 11.957C33.2246 11.8203 33.4648 11.6191 33.6602 11.3535C33.8594 11.084 34.0098 10.7539 34.1113 10.3633C34.2129 9.96875 34.2637 9.51562 34.2637 9.00391ZM43.6387 4.46875V13H42.502L38.207 6.41992V13H37.0762V4.46875H38.207L42.5195 11.0664V4.46875H43.6387Z" fill="#8794BA"/>
<path d="M90.2617 4.46875V13H89.1484V4.46875H90.2617ZM93.0039 4.46875V5.39453H86.4121V4.46875H93.0039ZM99.1504 4.46875H100.275V10.2402C100.275 10.8809 100.133 11.4141 99.8477 11.8398C99.5625 12.2656 99.1836 12.5859 98.7109 12.8008C98.2422 13.0117 97.7324 13.1172 97.1816 13.1172C96.6035 13.1172 96.0801 13.0117 95.6113 12.8008C95.1465 12.5859 94.7773 12.2656 94.5039 11.8398C94.2344 11.4141 94.0996 10.8809 94.0996 10.2402V4.46875H95.2188V10.2402C95.2188 10.6855 95.3008 11.0527 95.4648 11.3418C95.6289 11.6309 95.8574 11.8457 96.1504 11.9863C96.4473 12.127 96.791 12.1973 97.1816 12.1973C97.5762 12.1973 97.9199 12.127 98.2129 11.9863C98.5098 11.8457 98.7402 11.6309 98.9043 11.3418C99.0684 11.0527 99.1504 10.6855 99.1504 10.2402V4.46875ZM107.471 12.0801V13H102.953V12.0801H107.471ZM103.182 4.46875V13H102.051V4.46875H103.182ZM106.873 8.13672V9.05664H102.953V8.13672H106.873ZM107.412 4.46875V5.39453H102.953V4.46875H107.412Z" fill="#8794BA"/>
<path d="M153.561 10.4219L155.254 4.46875H156.074L155.6 6.7832L153.777 13H152.963L153.561 10.4219ZM151.809 4.46875L153.156 10.3047L153.561 13H152.752L150.684 4.46875H151.809ZM158.266 10.2988L159.584 4.46875H160.715L158.652 13H157.844L158.266 10.2988ZM156.197 4.46875L157.844 10.4219L158.441 13H157.627L155.869 6.7832L155.389 4.46875H156.197ZM167.389 12.0801V13H162.871V12.0801H167.389ZM163.1 4.46875V13H161.969V4.46875H163.1ZM166.791 8.13672V9.05664H162.871V8.13672H166.791ZM167.33 4.46875V5.39453H162.871V4.46875H167.33ZM171.098 13H169.316L169.328 12.0801H171.098C171.707 12.0801 172.215 11.9531 172.621 11.6992C173.027 11.4414 173.332 11.082 173.535 10.6211C173.742 10.1562 173.846 9.61328 173.846 8.99219V8.4707C173.846 7.98242 173.787 7.54883 173.67 7.16992C173.553 6.78711 173.381 6.46484 173.154 6.20312C172.928 5.9375 172.65 5.73633 172.322 5.59961C171.998 5.46289 171.625 5.39453 171.203 5.39453H169.281V4.46875H171.203C171.762 4.46875 172.271 4.5625 172.732 4.75C173.193 4.93359 173.59 5.20117 173.922 5.55273C174.258 5.90039 174.516 6.32227 174.695 6.81836C174.875 7.31055 174.965 7.86523 174.965 8.48242V8.99219C174.965 9.60938 174.875 10.166 174.695 10.6621C174.516 11.1543 174.256 11.5742 173.916 11.9219C173.58 12.2695 173.174 12.5371 172.697 12.7246C172.225 12.9082 171.691 13 171.098 13ZM169.92 4.46875V13H168.789V4.46875H169.92Z" fill="#8794BA"/>
<path d="M221.389 4.46875V13H220.275V4.46875H221.389ZM224.131 4.46875V5.39453H217.539V4.46875H224.131ZM230.969 8.13672V9.05664H226.352V8.13672H230.969ZM226.527 4.46875V13H225.396V4.46875H226.527ZM231.953 4.46875V13H230.828V4.46875H231.953ZM238.844 4.46875H239.969V10.2402C239.969 10.8809 239.826 11.4141 239.541 11.8398C239.256 12.2656 238.877 12.5859 238.404 12.8008C237.936 13.0117 237.426 13.1172 236.875 13.1172C236.297 13.1172 235.773 13.0117 235.305 12.8008C234.84 12.5859 234.471 12.2656 234.197 11.8398C233.928 11.4141 233.793 10.8809 233.793 10.2402V4.46875H234.912V10.2402C234.912 10.6855 234.994 11.0527 235.158 11.3418C235.322 11.6309 235.551 11.8457 235.844 11.9863C236.141 12.127 236.484 12.1973 236.875 12.1973C237.27 12.1973 237.613 12.127 237.906 11.9863C238.203 11.8457 238.434 11.6309 238.598 11.3418C238.762 11.0527 238.844 10.6855 238.844 10.2402V4.46875Z" fill="#8794BA"/>
<path d="M288.473 4.46875V13H287.342V4.46875H288.473ZM292.047 8.30664V9.23242H288.227V8.30664H292.047ZM292.627 4.46875V5.39453H288.227V4.46875H292.627ZM293.975 4.46875H296.799C297.439 4.46875 297.98 4.56641 298.422 4.76172C298.867 4.95703 299.205 5.24609 299.436 5.62891C299.67 6.00781 299.787 6.47461 299.787 7.0293C299.787 7.41992 299.707 7.77734 299.547 8.10156C299.391 8.42188 299.164 8.69531 298.867 8.92188C298.574 9.14453 298.223 9.31055 297.812 9.41992L297.496 9.54297H294.842L294.83 8.62305H296.834C297.24 8.62305 297.578 8.55273 297.848 8.41211C298.117 8.26758 298.32 8.07422 298.457 7.83203C298.594 7.58984 298.662 7.32227 298.662 7.0293C298.662 6.70117 298.598 6.41406 298.469 6.16797C298.34 5.92188 298.137 5.73242 297.859 5.59961C297.586 5.46289 297.232 5.39453 296.799 5.39453H295.105V13H293.975V4.46875ZM298.961 13L296.887 9.13281L298.064 9.12695L300.168 12.9297V13H298.961ZM302.582 4.46875V13H301.451V4.46875H302.582Z" fill="#8794BA"/>
<path d="M355.861 10.8438C355.861 10.6445 355.83 10.4688 355.768 10.3164C355.709 10.1602 355.604 10.0195 355.451 9.89453C355.303 9.76953 355.096 9.65039 354.83 9.53711C354.568 9.42383 354.236 9.30859 353.834 9.19141C353.412 9.06641 353.031 8.92773 352.691 8.77539C352.352 8.61914 352.061 8.44141 351.818 8.24219C351.576 8.04297 351.391 7.81445 351.262 7.55664C351.133 7.29883 351.068 7.00391 351.068 6.67188C351.068 6.33984 351.137 6.0332 351.273 5.75195C351.41 5.4707 351.605 5.22656 351.859 5.01953C352.117 4.80859 352.424 4.64453 352.779 4.52734C353.135 4.41016 353.531 4.35156 353.969 4.35156C354.609 4.35156 355.152 4.47461 355.598 4.7207C356.047 4.96289 356.389 5.28125 356.623 5.67578C356.857 6.06641 356.975 6.48438 356.975 6.92969H355.85C355.85 6.60938 355.781 6.32617 355.645 6.08008C355.508 5.83008 355.301 5.63477 355.023 5.49414C354.746 5.34961 354.395 5.27734 353.969 5.27734C353.566 5.27734 353.234 5.33789 352.973 5.45898C352.711 5.58008 352.516 5.74414 352.387 5.95117C352.262 6.1582 352.199 6.39453 352.199 6.66016C352.199 6.83984 352.236 7.00391 352.311 7.15234C352.389 7.29688 352.508 7.43164 352.668 7.55664C352.832 7.68164 353.039 7.79688 353.289 7.90234C353.543 8.00781 353.846 8.10938 354.197 8.20703C354.682 8.34375 355.1 8.49609 355.451 8.66406C355.803 8.83203 356.092 9.02148 356.318 9.23242C356.549 9.43945 356.719 9.67578 356.828 9.94141C356.941 10.2031 356.998 10.5 356.998 10.832C356.998 11.1797 356.928 11.4941 356.787 11.7754C356.646 12.0566 356.445 12.2969 356.184 12.4961C355.922 12.6953 355.607 12.8496 355.24 12.959C354.877 13.0645 354.471 13.1172 354.021 13.1172C353.627 13.1172 353.238 13.0625 352.855 12.9531C352.477 12.8438 352.131 12.6797 351.818 12.4609C351.51 12.2422 351.262 11.9727 351.074 11.6523C350.891 11.3281 350.799 10.9531 350.799 10.5273H351.924C351.924 10.8203 351.98 11.0723 352.094 11.2832C352.207 11.4902 352.361 11.6621 352.557 11.7988C352.756 11.9355 352.98 12.0371 353.23 12.1035C353.484 12.166 353.748 12.1973 354.021 12.1973C354.416 12.1973 354.75 12.1426 355.023 12.0332C355.297 11.9238 355.504 11.7676 355.645 11.5645C355.789 11.3613 355.861 11.1211 355.861 10.8438ZM361.598 5.22461L358.773 13H357.619L360.871 4.46875H361.615L361.598 5.22461ZM363.965 13L361.135 5.22461L361.117 4.46875H361.861L365.125 13H363.965ZM363.818 9.8418V10.7676H359.025V9.8418H363.818ZM368.658 4.46875V13H367.545V4.46875H368.658ZM371.4 4.46875V5.39453H364.809V4.46875H371.4Z" fill="#8794BA"/>
<path d="M420.801 10.8438C420.801 10.6445 420.77 10.4688 420.707 10.3164C420.648 10.1602 420.543 10.0195 420.391 9.89453C420.242 9.76953 420.035 9.65039 419.77 9.53711C419.508 9.42383 419.176 9.30859 418.773 9.19141C418.352 9.06641 417.971 8.92773 417.631 8.77539C417.291 8.61914 417 8.44141 416.758 8.24219C416.516 8.04297 416.33 7.81445 416.201 7.55664C416.072 7.29883 416.008 7.00391 416.008 6.67188C416.008 6.33984 416.076 6.0332 416.213 5.75195C416.35 5.4707 416.545 5.22656 416.799 5.01953C417.057 4.80859 417.363 4.64453 417.719 4.52734C418.074 4.41016 418.471 4.35156 418.908 4.35156C419.549 4.35156 420.092 4.47461 420.537 4.7207C420.986 4.96289 421.328 5.28125 421.562 5.67578C421.797 6.06641 421.914 6.48438 421.914 6.92969H420.789C420.789 6.60938 420.721 6.32617 420.584 6.08008C420.447 5.83008 420.24 5.63477 419.963 5.49414C419.686 5.34961 419.334 5.27734 418.908 5.27734C418.506 5.27734 418.174 5.33789 417.912 5.45898C417.65 5.58008 417.455 5.74414 417.326 5.95117C417.201 6.1582 417.139 6.39453 417.139 6.66016C417.139 6.83984 417.176 7.00391 417.25 7.15234C417.328 7.29688 417.447 7.43164 417.607 7.55664C417.771 7.68164 417.979 7.79688 418.229 7.90234C418.482 8.00781 418.785 8.10938 419.137 8.20703C419.621 8.34375 420.039 8.49609 420.391 8.66406C420.742 8.83203 421.031 9.02148 421.258 9.23242C421.488 9.43945 421.658 9.67578 421.768 9.94141C421.881 10.2031 421.938 10.5 421.938 10.832C421.938 11.1797 421.867 11.4941 421.727 11.7754C421.586 12.0566 421.385 12.2969 421.123 12.4961C420.861 12.6953 420.547 12.8496 420.18 12.959C419.816 13.0645 419.41 13.1172 418.961 13.1172C418.566 13.1172 418.178 13.0625 417.795 12.9531C417.416 12.8438 417.07 12.6797 416.758 12.4609C416.449 12.2422 416.201 11.9727 416.014 11.6523C415.83 11.3281 415.738 10.9531 415.738 10.5273H416.863C416.863 10.8203 416.92 11.0723 417.033 11.2832C417.146 11.4902 417.301 11.6621 417.496 11.7988C417.695 11.9355 417.92 12.0371 418.17 12.1035C418.424 12.166 418.688 12.1973 418.961 12.1973C419.355 12.1973 419.689 12.1426 419.963 12.0332C420.236 11.9238 420.443 11.7676 420.584 11.5645C420.729 11.3613 420.801 11.1211 420.801 10.8438ZM428.26 4.46875H429.385V10.2402C429.385 10.8809 429.242 11.4141 428.957 11.8398C428.672 12.2656 428.293 12.5859 427.82 12.8008C427.352 13.0117 426.842 13.1172 426.291 13.1172C425.713 13.1172 425.189 13.0117 424.721 12.8008C424.256 12.5859 423.887 12.2656 423.613 11.8398C423.344 11.4141 423.209 10.8809 423.209 10.2402V4.46875H424.328V10.2402C424.328 10.6855 424.41 11.0527 424.574 11.3418C424.738 11.6309 424.967 11.8457 425.26 11.9863C425.557 12.127 425.9 12.1973 426.291 12.1973C426.686 12.1973 427.029 12.127 427.322 11.9863C427.619 11.8457 427.85 11.6309 428.014 11.3418C428.178 11.0527 428.26 10.6855 428.26 10.2402V4.46875ZM437.723 4.46875V13H436.586L432.291 6.41992V13H431.16V4.46875H432.291L436.604 11.0664V4.46875H437.723Z" fill="#8794BA"/>
</svg>
