<svg width="484" height="271" viewBox="0 0 484 271" fill="none" xmlns="http://www.w3.org/2000/svg">
<rect x="42" width="1" height="271" fill="#EEEEF7"/>
<rect x="105" width="1" height="271" fill="#EEEEF7"/>
<rect x="168" width="1" height="271" fill="#EEEEF7"/>
<rect x="231" width="1" height="271" fill="#EEEEF7"/>
<rect x="294" width="1" height="271" fill="#EEEEF7"/>
<rect x="357" width="1" height="271" fill="#EEEEF7"/>
<rect x="420" width="1" height="271" fill="#EEEEF7"/>
<rect x="483" width="1" height="271" fill="#EEEEF7"/>
<path d="M2.76367 20.9395L1.89648 20.7168L2.32422 16.4688H6.70117V17.4707H3.24414L2.98633 19.791C3.14258 19.7012 3.33984 19.6172 3.57812 19.5391C3.82031 19.4609 4.09766 19.4219 4.41016 19.4219C4.80469 19.4219 5.1582 19.4902 5.4707 19.627C5.7832 19.7598 6.04883 19.9512 6.26758 20.2012C6.49023 20.4512 6.66016 20.752 6.77734 21.1035C6.89453 21.4551 6.95312 21.8477 6.95312 22.2812C6.95312 22.6914 6.89648 23.0684 6.7832 23.4121C6.67383 23.7559 6.50781 24.0566 6.28516 24.3145C6.0625 24.5684 5.78125 24.7656 5.44141 24.9062C5.10547 25.0469 4.70898 25.1172 4.25195 25.1172C3.9082 25.1172 3.58203 25.0703 3.27344 24.9766C2.96875 24.8789 2.69531 24.7324 2.45312 24.5371C2.21484 24.3379 2.01953 24.0918 1.86719 23.7988C1.71875 23.502 1.625 23.1543 1.58594 22.7559H2.61719C2.66406 23.0762 2.75781 23.3457 2.89844 23.5645C3.03906 23.7832 3.22266 23.9492 3.44922 24.0625C3.67969 24.1719 3.94727 24.2266 4.25195 24.2266C4.50977 24.2266 4.73828 24.1816 4.9375 24.0918C5.13672 24.002 5.30469 23.873 5.44141 23.7051C5.57812 23.5371 5.68164 23.334 5.75195 23.0957C5.82617 22.8574 5.86328 22.5898 5.86328 22.293C5.86328 22.0234 5.82617 21.7734 5.75195 21.543C5.67773 21.3125 5.56641 21.1113 5.41797 20.9395C5.27344 20.7676 5.0957 20.6348 4.88477 20.541C4.67383 20.4434 4.43164 20.3945 4.1582 20.3945C3.79492 20.3945 3.51953 20.4434 3.33203 20.541C3.14844 20.6387 2.95898 20.7715 2.76367 20.9395ZM13.9082 22.1289V23.0195H7.74414V22.3809L11.5645 16.4688H12.4492L11.5 18.1797L8.97461 22.1289H13.9082ZM12.7188 16.4688V25H11.6348V16.4688H12.7188ZM17.2656 20.9277V21.8184H14.4062V20.9277H17.2656ZM22.3691 16.457H22.4629V17.377H22.3691C21.7949 17.377 21.3145 17.4707 20.9277 17.6582C20.541 17.8418 20.2344 18.0898 20.0078 18.4023C19.7812 18.7109 19.6172 19.0586 19.5156 19.4453C19.418 19.832 19.3691 20.2246 19.3691 20.623V21.877C19.3691 22.2559 19.4141 22.5918 19.5039 22.8848C19.5938 23.1738 19.7168 23.418 19.873 23.6172C20.0293 23.8164 20.2051 23.9668 20.4004 24.0684C20.5996 24.1699 20.8066 24.2207 21.0215 24.2207C21.2715 24.2207 21.4941 24.1738 21.6895 24.0801C21.8848 23.9824 22.0488 23.8477 22.1816 23.6758C22.3184 23.5 22.4219 23.293 22.4922 23.0547C22.5625 22.8164 22.5977 22.5547 22.5977 22.2695C22.5977 22.0156 22.5664 21.7715 22.5039 21.5371C22.4414 21.2988 22.3457 21.0879 22.2168 20.9043C22.0879 20.7168 21.9258 20.5703 21.7305 20.4648C21.5391 20.3555 21.3105 20.3008 21.0449 20.3008C20.7441 20.3008 20.4629 20.375 20.2012 20.5234C19.9434 20.668 19.7305 20.8594 19.5625 21.0977C19.3984 21.332 19.3047 21.5879 19.2812 21.8652L18.707 21.8594C18.7617 21.4219 18.8633 21.0488 19.0117 20.7402C19.1641 20.4277 19.3516 20.1738 19.5742 19.9785C19.8008 19.7793 20.0527 19.6348 20.3301 19.5449C20.6113 19.4512 20.9082 19.4043 21.2207 19.4043C21.6465 19.4043 22.0137 19.4844 22.3223 19.6445C22.6309 19.8047 22.8848 20.0195 23.084 20.2891C23.2832 20.5547 23.4297 20.8555 23.5234 21.1914C23.6211 21.5234 23.6699 21.8652 23.6699 22.2168C23.6699 22.6191 23.6133 22.9961 23.5 23.3477C23.3867 23.6992 23.2168 24.0078 22.9902 24.2734C22.7676 24.5391 22.4922 24.7461 22.1641 24.8945C21.8359 25.043 21.4551 25.1172 21.0215 25.1172C20.5605 25.1172 20.1582 25.0234 19.8145 24.8359C19.4707 24.6445 19.1855 24.3906 18.959 24.0742C18.7324 23.7578 18.5625 23.4062 18.4492 23.0195C18.3359 22.6328 18.2793 22.2402 18.2793 21.8418V21.332C18.2793 20.7305 18.3398 20.1406 18.4609 19.5625C18.582 18.9844 18.791 18.4609 19.0879 17.9922C19.3887 17.5234 19.8047 17.1504 20.3359 16.873C20.8672 16.5957 21.5449 16.457 22.3691 16.457ZM26.3301 20.9395L25.4629 20.7168L25.8906 16.4688H30.2676V17.4707H26.8105L26.5527 19.791C26.709 19.7012 26.9062 19.6172 27.1445 19.5391C27.3867 19.4609 27.6641 19.4219 27.9766 19.4219C28.3711 19.4219 28.7246 19.4902 29.0371 19.627C29.3496 19.7598 29.6152 19.9512 29.834 20.2012C30.0566 20.4512 30.2266 20.752 30.3438 21.1035C30.4609 21.4551 30.5195 21.8477 30.5195 22.2812C30.5195 22.6914 30.4629 23.0684 30.3496 23.4121C30.2402 23.7559 30.0742 24.0566 29.8516 24.3145C29.6289 24.5684 29.3477 24.7656 29.0078 24.9062C28.6719 25.0469 28.2754 25.1172 27.8184 25.1172C27.4746 25.1172 27.1484 25.0703 26.8398 24.9766C26.5352 24.8789 26.2617 24.7324 26.0195 24.5371C25.7812 24.3379 25.5859 24.0918 25.4336 23.7988C25.2852 23.502 25.1914 23.1543 25.1523 22.7559H26.1836C26.2305 23.0762 26.3242 23.3457 26.4648 23.5645C26.6055 23.7832 26.7891 23.9492 27.0156 24.0625C27.2461 24.1719 27.5137 24.2266 27.8184 24.2266C28.0762 24.2266 28.3047 24.1816 28.5039 24.0918C28.7031 24.002 28.8711 23.873 29.0078 23.7051C29.1445 23.5371 29.248 23.334 29.3184 23.0957C29.3926 22.8574 29.4297 22.5898 29.4297 22.293C29.4297 22.0234 29.3926 21.7734 29.3184 21.543C29.2441 21.3125 29.1328 21.1113 28.9844 20.9395C28.8398 20.7676 28.6621 20.6348 28.4512 20.541C28.2402 20.4434 27.998 20.3945 27.7246 20.3945C27.3613 20.3945 27.0859 20.4434 26.8984 20.541C26.7148 20.6387 26.5254 20.7715 26.3301 20.9395Z" fill="#8794BA"/>
<path d="M7.1582 78.1289V79.0195H0.994141V78.3809L4.81445 72.4688H5.69922L4.75 74.1797L2.22461 78.1289H7.1582ZM5.96875 72.4688V81H4.88477V72.4688H5.96875ZM9.51367 76.9395L8.64648 76.7168L9.07422 72.4688H13.4512V73.4707H9.99414L9.73633 75.791C9.89258 75.7012 10.0898 75.6172 10.3281 75.5391C10.5703 75.4609 10.8477 75.4219 11.1602 75.4219C11.5547 75.4219 11.9082 75.4902 12.2207 75.627C12.5332 75.7598 12.7988 75.9512 13.0176 76.2012C13.2402 76.4512 13.4102 76.752 13.5273 77.1035C13.6445 77.4551 13.7031 77.8477 13.7031 78.2812C13.7031 78.6914 13.6465 79.0684 13.5332 79.4121C13.4238 79.7559 13.2578 80.0566 13.0352 80.3145C12.8125 80.5684 12.5312 80.7656 12.1914 80.9062C11.8555 81.0469 11.459 81.1172 11.002 81.1172C10.6582 81.1172 10.332 81.0703 10.0234 80.9766C9.71875 80.8789 9.44531 80.7324 9.20312 80.5371C8.96484 80.3379 8.76953 80.0918 8.61719 79.7988C8.46875 79.502 8.375 79.1543 8.33594 78.7559H9.36719C9.41406 79.0762 9.50781 79.3457 9.64844 79.5645C9.78906 79.7832 9.97266 79.9492 10.1992 80.0625C10.4297 80.1719 10.6973 80.2266 11.002 80.2266C11.2598 80.2266 11.4883 80.1816 11.6875 80.0918C11.8867 80.002 12.0547 79.873 12.1914 79.7051C12.3281 79.5371 12.4316 79.334 12.502 79.0957C12.5762 78.8574 12.6133 78.5898 12.6133 78.293C12.6133 78.0234 12.5762 77.7734 12.502 77.543C12.4277 77.3125 12.3164 77.1113 12.168 76.9395C12.0234 76.7676 11.8457 76.6348 11.6348 76.541C11.4238 76.4434 11.1816 76.3945 10.9082 76.3945C10.5449 76.3945 10.2695 76.4434 10.082 76.541C9.89844 76.6387 9.70898 76.7715 9.51367 76.9395ZM17.2656 76.9277V77.8184H14.4062V76.9277H17.2656ZM19.5801 76.9395L18.7129 76.7168L19.1406 72.4688H23.5176V73.4707H20.0605L19.8027 75.791C19.959 75.7012 20.1562 75.6172 20.3945 75.5391C20.6367 75.4609 20.9141 75.4219 21.2266 75.4219C21.6211 75.4219 21.9746 75.4902 22.2871 75.627C22.5996 75.7598 22.8652 75.9512 23.084 76.2012C23.3066 76.4512 23.4766 76.752 23.5938 77.1035C23.7109 77.4551 23.7695 77.8477 23.7695 78.2812C23.7695 78.6914 23.7129 79.0684 23.5996 79.4121C23.4902 79.7559 23.3242 80.0566 23.1016 80.3145C22.8789 80.5684 22.5977 80.7656 22.2578 80.9062C21.9219 81.0469 21.5254 81.1172 21.0684 81.1172C20.7246 81.1172 20.3984 81.0703 20.0898 80.9766C19.7852 80.8789 19.5117 80.7324 19.2695 80.5371C19.0312 80.3379 18.8359 80.0918 18.6836 79.7988C18.5352 79.502 18.4414 79.1543 18.4023 78.7559H19.4336C19.4805 79.0762 19.5742 79.3457 19.7148 79.5645C19.8555 79.7832 20.0391 79.9492 20.2656 80.0625C20.4961 80.1719 20.7637 80.2266 21.0684 80.2266C21.3262 80.2266 21.5547 80.1816 21.7539 80.0918C21.9531 80.002 22.1211 79.873 22.2578 79.7051C22.3945 79.5371 22.498 79.334 22.5684 79.0957C22.6426 78.8574 22.6797 78.5898 22.6797 78.293C22.6797 78.0234 22.6426 77.7734 22.5684 77.543C22.4941 77.3125 22.3828 77.1113 22.2344 76.9395C22.0898 76.7676 21.9121 76.6348 21.7012 76.541C21.4902 76.4434 21.248 76.3945 20.9746 76.3945C20.6113 76.3945 20.3359 76.4434 20.1484 76.541C19.9648 76.6387 19.7754 76.7715 19.5801 76.9395ZM30.7246 78.1289V79.0195H24.5605V78.3809L28.3809 72.4688H29.2656L28.3164 74.1797L25.791 78.1289H30.7246ZM29.5352 72.4688V81H28.4512V72.4688H29.5352Z" fill="#8794BA"/>
<path d="M2.97461 132.201H3.74805C4.12695 132.201 4.43945 132.139 4.68555 132.014C4.93555 131.885 5.12109 131.711 5.24219 131.492C5.36719 131.27 5.42969 131.02 5.42969 130.742C5.42969 130.414 5.375 130.139 5.26562 129.916C5.15625 129.693 4.99219 129.525 4.77344 129.412C4.55469 129.299 4.27734 129.242 3.94141 129.242C3.63672 129.242 3.36719 129.303 3.13281 129.424C2.90234 129.541 2.7207 129.709 2.58789 129.928C2.45898 130.146 2.39453 130.404 2.39453 130.701H1.31055C1.31055 130.268 1.41992 129.873 1.63867 129.518C1.85742 129.162 2.16406 128.879 2.55859 128.668C2.95703 128.457 3.41797 128.352 3.94141 128.352C4.45703 128.352 4.9082 128.443 5.29492 128.627C5.68164 128.807 5.98242 129.076 6.19727 129.436C6.41211 129.791 6.51953 130.234 6.51953 130.766C6.51953 130.98 6.46875 131.211 6.36719 131.457C6.26953 131.699 6.11523 131.926 5.9043 132.137C5.69727 132.348 5.42773 132.521 5.0957 132.658C4.76367 132.791 4.36523 132.857 3.90039 132.857H2.97461V132.201ZM2.97461 133.092V132.441H3.90039C4.44336 132.441 4.89258 132.506 5.24805 132.635C5.60352 132.764 5.88281 132.936 6.08594 133.15C6.29297 133.365 6.4375 133.602 6.51953 133.859C6.60547 134.113 6.64844 134.367 6.64844 134.621C6.64844 135.02 6.58008 135.373 6.44336 135.682C6.31055 135.99 6.12109 136.252 5.875 136.467C5.63281 136.682 5.34766 136.844 5.01953 136.953C4.69141 137.062 4.33398 137.117 3.94727 137.117C3.57617 137.117 3.22656 137.064 2.89844 136.959C2.57422 136.854 2.28711 136.701 2.03711 136.502C1.78711 136.299 1.5918 136.051 1.45117 135.758C1.31055 135.461 1.24023 135.123 1.24023 134.744H2.32422C2.32422 135.041 2.38867 135.301 2.51758 135.523C2.65039 135.746 2.83789 135.92 3.08008 136.045C3.32617 136.166 3.61523 136.227 3.94727 136.227C4.2793 136.227 4.56445 136.17 4.80273 136.057C5.04492 135.939 5.23047 135.764 5.35938 135.529C5.49219 135.295 5.55859 135 5.55859 134.645C5.55859 134.289 5.48438 133.998 5.33594 133.771C5.1875 133.541 4.97656 133.371 4.70312 133.262C4.43359 133.148 4.11523 133.092 3.74805 133.092H2.97461ZM9.51367 132.939L8.64648 132.717L9.07422 128.469H13.4512V129.471H9.99414L9.73633 131.791C9.89258 131.701 10.0898 131.617 10.3281 131.539C10.5703 131.461 10.8477 131.422 11.1602 131.422C11.5547 131.422 11.9082 131.49 12.2207 131.627C12.5332 131.76 12.7988 131.951 13.0176 132.201C13.2402 132.451 13.4102 132.752 13.5273 133.104C13.6445 133.455 13.7031 133.848 13.7031 134.281C13.7031 134.691 13.6465 135.068 13.5332 135.412C13.4238 135.756 13.2578 136.057 13.0352 136.314C12.8125 136.568 12.5312 136.766 12.1914 136.906C11.8555 137.047 11.459 137.117 11.002 137.117C10.6582 137.117 10.332 137.07 10.0234 136.977C9.71875 136.879 9.44531 136.732 9.20312 136.537C8.96484 136.338 8.76953 136.092 8.61719 135.799C8.46875 135.502 8.375 135.154 8.33594 134.756H9.36719C9.41406 135.076 9.50781 135.346 9.64844 135.564C9.78906 135.783 9.97266 135.949 10.1992 136.062C10.4297 136.172 10.6973 136.227 11.002 136.227C11.2598 136.227 11.4883 136.182 11.6875 136.092C11.8867 136.002 12.0547 135.873 12.1914 135.705C12.3281 135.537 12.4316 135.334 12.502 135.096C12.5762 134.857 12.6133 134.59 12.6133 134.293C12.6133 134.023 12.5762 133.773 12.502 133.543C12.4277 133.312 12.3164 133.111 12.168 132.939C12.0234 132.768 11.8457 132.635 11.6348 132.541C11.4238 132.443 11.1816 132.395 10.9082 132.395C10.5449 132.395 10.2695 132.443 10.082 132.541C9.89844 132.639 9.70898 132.771 9.51367 132.939ZM17.2656 132.928V133.818H14.4062V132.928H17.2656ZM23.9746 134.129V135.02H17.8105V134.381L21.6309 128.469H22.5156L21.5664 130.18L19.041 134.129H23.9746ZM22.7852 128.469V137H21.7012V128.469H22.7852ZM30.7246 134.129V135.02H24.5605V134.381L28.3809 128.469H29.2656L28.3164 130.18L25.791 134.129H30.7246ZM29.5352 128.469V137H28.4512V128.469H29.5352Z" fill="#8794BA"/>
<path d="M6.98242 192.109V193H1.39844V192.221L4.19336 189.109C4.53711 188.727 4.80273 188.402 4.99023 188.137C5.18164 187.867 5.31445 187.627 5.38867 187.416C5.4668 187.201 5.50586 186.982 5.50586 186.76C5.50586 186.479 5.44727 186.225 5.33008 185.998C5.2168 185.768 5.04883 185.584 4.82617 185.447C4.60352 185.311 4.33398 185.242 4.01758 185.242C3.63867 185.242 3.32227 185.316 3.06836 185.465C2.81836 185.609 2.63086 185.812 2.50586 186.074C2.38086 186.336 2.31836 186.637 2.31836 186.977H1.23438C1.23438 186.496 1.33984 186.057 1.55078 185.658C1.76172 185.26 2.07422 184.943 2.48828 184.709C2.90234 184.471 3.41211 184.352 4.01758 184.352C4.55664 184.352 5.01758 184.447 5.40039 184.639C5.7832 184.826 6.07617 185.092 6.2793 185.436C6.48633 185.775 6.58984 186.174 6.58984 186.631C6.58984 186.881 6.54688 187.135 6.46094 187.393C6.37891 187.646 6.26367 187.9 6.11523 188.154C5.9707 188.408 5.80078 188.658 5.60547 188.904C5.41406 189.15 5.20898 189.393 4.99023 189.631L2.70508 192.109H6.98242ZM9.51367 188.939L8.64648 188.717L9.07422 184.469H13.4512V185.471H9.99414L9.73633 187.791C9.89258 187.701 10.0898 187.617 10.3281 187.539C10.5703 187.461 10.8477 187.422 11.1602 187.422C11.5547 187.422 11.9082 187.49 12.2207 187.627C12.5332 187.76 12.7988 187.951 13.0176 188.201C13.2402 188.451 13.4102 188.752 13.5273 189.104C13.6445 189.455 13.7031 189.848 13.7031 190.281C13.7031 190.691 13.6465 191.068 13.5332 191.412C13.4238 191.756 13.2578 192.057 13.0352 192.314C12.8125 192.568 12.5312 192.766 12.1914 192.906C11.8555 193.047 11.459 193.117 11.002 193.117C10.6582 193.117 10.332 193.07 10.0234 192.977C9.71875 192.879 9.44531 192.732 9.20312 192.537C8.96484 192.338 8.76953 192.092 8.61719 191.799C8.46875 191.502 8.375 191.154 8.33594 190.756H9.36719C9.41406 191.076 9.50781 191.346 9.64844 191.564C9.78906 191.783 9.97266 191.949 10.1992 192.062C10.4297 192.172 10.6973 192.227 11.002 192.227C11.2598 192.227 11.4883 192.182 11.6875 192.092C11.8867 192.002 12.0547 191.873 12.1914 191.705C12.3281 191.537 12.4316 191.334 12.502 191.096C12.5762 190.857 12.6133 190.59 12.6133 190.293C12.6133 190.023 12.5762 189.773 12.502 189.543C12.4277 189.312 12.3164 189.111 12.168 188.939C12.0234 188.768 11.8457 188.635 11.6348 188.541C11.4238 188.443 11.1816 188.395 10.9082 188.395C10.5449 188.395 10.2695 188.443 10.082 188.541C9.89844 188.639 9.70898 188.771 9.51367 188.939ZM17.2656 188.928V189.818H14.4062V188.928H17.2656ZM19.791 188.201H20.5645C20.9434 188.201 21.2559 188.139 21.502 188.014C21.752 187.885 21.9375 187.711 22.0586 187.492C22.1836 187.27 22.2461 187.02 22.2461 186.742C22.2461 186.414 22.1914 186.139 22.082 185.916C21.9727 185.693 21.8086 185.525 21.5898 185.412C21.3711 185.299 21.0938 185.242 20.7578 185.242C20.4531 185.242 20.1836 185.303 19.9492 185.424C19.7188 185.541 19.5371 185.709 19.4043 185.928C19.2754 186.146 19.2109 186.404 19.2109 186.701H18.127C18.127 186.268 18.2363 185.873 18.4551 185.518C18.6738 185.162 18.9805 184.879 19.375 184.668C19.7734 184.457 20.2344 184.352 20.7578 184.352C21.2734 184.352 21.7246 184.443 22.1113 184.627C22.498 184.807 22.7988 185.076 23.0137 185.436C23.2285 185.791 23.3359 186.234 23.3359 186.766C23.3359 186.98 23.2852 187.211 23.1836 187.457C23.0859 187.699 22.9316 187.926 22.7207 188.137C22.5137 188.348 22.2441 188.521 21.9121 188.658C21.5801 188.791 21.1816 188.857 20.7168 188.857H19.791V188.201ZM19.791 189.092V188.441H20.7168C21.2598 188.441 21.709 188.506 22.0645 188.635C22.4199 188.764 22.6992 188.936 22.9023 189.15C23.1094 189.365 23.2539 189.602 23.3359 189.859C23.4219 190.113 23.4648 190.367 23.4648 190.621C23.4648 191.02 23.3965 191.373 23.2598 191.682C23.127 191.99 22.9375 192.252 22.6914 192.467C22.4492 192.682 22.1641 192.844 21.8359 192.953C21.5078 193.062 21.1504 193.117 20.7637 193.117C20.3926 193.117 20.043 193.064 19.7148 192.959C19.3906 192.854 19.1035 192.701 18.8535 192.502C18.6035 192.299 18.4082 192.051 18.2676 191.758C18.127 191.461 18.0566 191.123 18.0566 190.744H19.1406C19.1406 191.041 19.2051 191.301 19.334 191.523C19.4668 191.746 19.6543 191.92 19.8965 192.045C20.1426 192.166 20.4316 192.227 20.7637 192.227C21.0957 192.227 21.3809 192.17 21.6191 192.057C21.8613 191.939 22.0469 191.764 22.1758 191.529C22.3086 191.295 22.375 191 22.375 190.645C22.375 190.289 22.3008 189.998 22.1523 189.771C22.0039 189.541 21.793 189.371 21.5195 189.262C21.25 189.148 20.9316 189.092 20.5645 189.092H19.791ZM30.7246 190.129V191.02H24.5605V190.381L28.3809 184.469H29.2656L28.3164 186.18L25.791 190.129H30.7246ZM29.5352 184.469V193H28.4512V184.469H29.5352Z" fill="#8794BA"/>
<path d="M4.95508 240.422V249H3.87109V241.775L1.68555 242.572V241.594L4.78516 240.422H4.95508ZM13.5215 246.691C13.5215 247.211 13.4004 247.652 13.1582 248.016C12.9199 248.375 12.5957 248.648 12.1855 248.836C11.7793 249.023 11.3203 249.117 10.8086 249.117C10.2969 249.117 9.83594 249.023 9.42578 248.836C9.01562 248.648 8.69141 248.375 8.45312 248.016C8.21484 247.652 8.0957 247.211 8.0957 246.691C8.0957 246.352 8.16016 246.041 8.28906 245.76C8.42188 245.475 8.60742 245.227 8.8457 245.016C9.08789 244.805 9.37305 244.643 9.70117 244.529C10.0332 244.412 10.3984 244.354 10.7969 244.354C11.3203 244.354 11.7871 244.455 12.1973 244.658C12.6074 244.857 12.9297 245.133 13.1641 245.484C13.4023 245.836 13.5215 246.238 13.5215 246.691ZM12.4316 246.668C12.4316 246.352 12.3633 246.072 12.2266 245.83C12.0898 245.584 11.8984 245.393 11.6523 245.256C11.4062 245.119 11.1211 245.051 10.7969 245.051C10.4648 245.051 10.1777 245.119 9.93555 245.256C9.69727 245.393 9.51172 245.584 9.37891 245.83C9.24609 246.072 9.17969 246.352 9.17969 246.668C9.17969 246.996 9.24414 247.277 9.37305 247.512C9.50586 247.742 9.69336 247.92 9.93555 248.045C10.1816 248.166 10.4727 248.227 10.8086 248.227C11.1445 248.227 11.4336 248.166 11.6758 248.045C11.918 247.92 12.1035 247.742 12.2324 247.512C12.3652 247.277 12.4316 246.996 12.4316 246.668ZM13.3223 242.689C13.3223 243.104 13.2129 243.477 12.9941 243.809C12.7754 244.141 12.4766 244.402 12.0977 244.594C11.7188 244.785 11.2891 244.881 10.8086 244.881C10.3203 244.881 9.88477 244.785 9.50195 244.594C9.12305 244.402 8.82617 244.141 8.61133 243.809C8.39648 243.477 8.28906 243.104 8.28906 242.689C8.28906 242.193 8.39648 241.771 8.61133 241.424C8.83008 241.076 9.12891 240.811 9.50781 240.627C9.88672 240.443 10.3184 240.352 10.8027 240.352C11.291 240.352 11.7246 240.443 12.1035 240.627C12.4824 240.811 12.7793 241.076 12.9941 241.424C13.2129 241.771 13.3223 242.193 13.3223 242.689ZM12.2383 242.707C12.2383 242.422 12.1777 242.17 12.0566 241.951C11.9355 241.732 11.7676 241.561 11.5527 241.436C11.3379 241.307 11.0879 241.242 10.8027 241.242C10.5176 241.242 10.2676 241.303 10.0527 241.424C9.8418 241.541 9.67578 241.709 9.55469 241.928C9.4375 242.146 9.37891 242.406 9.37891 242.707C9.37891 243 9.4375 243.256 9.55469 243.475C9.67578 243.693 9.84375 243.863 10.0586 243.984C10.2734 244.105 10.5234 244.166 10.8086 244.166C11.0938 244.166 11.3418 244.105 11.5527 243.984C11.7676 243.863 11.9355 243.693 12.0566 243.475C12.1777 243.256 12.2383 243 12.2383 242.707ZM17.2656 244.928V245.818H14.4062V244.928H17.2656ZM23.7988 248.109V249H18.2148V248.221L21.0098 245.109C21.3535 244.727 21.6191 244.402 21.8066 244.137C21.998 243.867 22.1309 243.627 22.2051 243.416C22.2832 243.201 22.3223 242.982 22.3223 242.76C22.3223 242.479 22.2637 242.225 22.1465 241.998C22.0332 241.768 21.8652 241.584 21.6426 241.447C21.4199 241.311 21.1504 241.242 20.834 241.242C20.4551 241.242 20.1387 241.316 19.8848 241.465C19.6348 241.609 19.4473 241.812 19.3223 242.074C19.1973 242.336 19.1348 242.637 19.1348 242.977H18.0508C18.0508 242.496 18.1562 242.057 18.3672 241.658C18.5781 241.26 18.8906 240.943 19.3047 240.709C19.7188 240.471 20.2285 240.352 20.834 240.352C21.373 240.352 21.834 240.447 22.2168 240.639C22.5996 240.826 22.8926 241.092 23.0957 241.436C23.3027 241.775 23.4062 242.174 23.4062 242.631C23.4062 242.881 23.3633 243.135 23.2773 243.393C23.1953 243.646 23.0801 243.9 22.9316 244.154C22.7871 244.408 22.6172 244.658 22.4219 244.904C22.2305 245.15 22.0254 245.393 21.8066 245.631L19.5215 248.109H23.7988ZM30.7246 246.129V247.02H24.5605V246.381L28.3809 240.469H29.2656L28.3164 242.18L25.791 246.129H30.7246ZM29.5352 240.469V249H28.4512V240.469H29.5352Z" fill="#8794BA"/>
<path d="M42 7H298.5C301.538 7 304 9.46243 304 12.5V12.5C304 15.5376 301.538 18 298.5 18H42V7Z" fill="#EF2A82"/>
<path d="M42 64H211.5C214.538 64 217 66.4624 217 69.5V69.5C217 72.5376 214.538 75 211.5 75H42V64Z" fill="#EF2A82"/>
<path d="M42 121H52.5C55.5376 121 58 123.462 58 126.5V126.5C58 129.538 55.5376 132 52.5 132H42V121Z" fill="#EF2A82"/>
<path d="M42 178H84.5C87.5376 178 90 180.462 90 183.5V183.5C90 186.538 87.5376 189 84.5 189H42V178Z" fill="#EF2A82"/>
<path d="M42 235H244.5C247.538 235 250 237.462 250 240.5V240.5C250 243.538 247.538 246 244.5 246H42V235Z" fill="#EF2A82"/>
<path d="M42 21H184.5C187.538 21 190 23.4624 190 26.5V26.5C190 29.5376 187.538 32 184.5 32H42V21Z" fill="#0088F0"/>
<path d="M42 78H244.5C247.538 78 250 80.4624 250 83.5V83.5C250 86.5376 247.538 89 244.5 89H42V78Z" fill="#0088F0"/>
<path d="M42 135H84.5C87.5376 135 90 137.462 90 140.5V140.5C90 143.538 87.5376 146 84.5 146H42V135Z" fill="#0088F0"/>
<path d="M42 192H375.5C378.538 192 381 194.462 381 197.5V197.5C381 200.538 378.538 203 375.5 203H42V192Z" fill="#0088F0"/>
<path d="M42 249H432.5C435.538 249 438 251.462 438 254.5V254.5C438 257.538 435.538 260 432.5 260H42V249Z" fill="#0088F0"/>
</svg>
